<svg xmlns="http://www.w3.org/2000/svg" width="1254" height="1254"><path fill="#faf9f9" d="M0 0h1254v1254H0z"/><path fill="#fafafa" d="M0 0h1254v1254H0zm583.082 14.688c-3.316.336-6.633.62-9.953.902-33.674 3-67.552 9.188-99.978 18.776a803 803 0 0 1-6.674 1.927c-42.667 12.325-84.395 29.352-123.033 51.322a600 600 0 0 1-6.964 3.873c-10.252 5.706-20.037 12.069-29.793 18.575l-1.897 1.264c-28.229 18.855-54.972 39.73-79.798 62.9-2.497 2.327-5.048 4.586-7.617 6.835-5.195 4.656-10.123 9.576-15.062 14.5l-2.45 2.436c-4.25 4.261-8.341 8.597-12.266 13.16-2.417 2.787-4.948 5.464-7.472 8.155-4.4 4.734-8.6 9.571-12.648 14.613a598 598 0 0 1-5.829 7.117C154.866 249.204 148.216 257.395 142 266l-1.285 1.775C126.911 286.918 113.792 306.551 102 327l-1.663 2.876C75.56 372.943 55.126 418.98 42 467l-.932 3.33C36.295 487.424 32.188 504.536 29 522l-.53 2.81c-2.213 11.744-4.012 23.532-5.595 35.378l-.48 3.498c-2.943 22.84-3.75 45.744-3.645 68.751l.01 3.774c.058 18.002.207 35.884 2.24 53.789l.221 1.997c5.043 45.296 14.753 89.689 29.664 132.754a652 652 0 0 1 3.693 11.172c2.037 6.282 4.24 12.385 7.149 18.327 1.084 2.341 2.034 4.675 2.968 7.078 2.887 7.275 6.224 14.343 9.555 21.422l1.054 2.24c23.015 48.791 52.058 93.49 86.225 135.203 1.259 1.546 2.5 3.107 3.737 4.67 5.286 6.65 11.026 12.81 16.888 18.95 3.128 3.279 6.205 6.573 9.155 10.015 4.172 4.812 8.668 9.3 13.179 13.79q2.17 2.165 4.33 4.337c4.674 4.677 9.406 9.233 14.428 13.536 2.588 2.226 5.069 4.557 7.566 6.884 5.541 5.117 11.31 9.897 17.188 14.625l2.395 1.996c22.537 18.776 46.598 35.694 71.605 51.004l2.013 1.236c62.215 38.098 133.773 68.467 206.55 78.123 3.044.41 6.023.954 9.027 1.594 6.249 1.283 12.56 2.04 18.89 2.797 2.028.243 4.054.496 6.08.75a510 510 0 0 0 64.065 3.813l3.45-.004c20.413-.04 40.616-1.038 60.92-3.107 1.912-.193 3.824-.376 5.736-.558 41.147-3.953 81.896-13.795 121.082-26.769l3.738-1.236c7.632-2.569 15.045-5.477 22.449-8.639a461 461 0 0 1 3.836-1.527c56.528-22.524 109.59-54.245 156.432-93.045 2.475-2.04 4.982-4.042 7.482-6.053 4.917-4.022 9.584-8.273 14.23-12.602 2.204-2.046 4.459-4.021 6.738-5.984 4.098-3.58 7.976-7.338 11.817-11.191l2.068-2.065q2.146-2.145 4.288-4.293 3.25-3.256 6.51-6.504l4.197-4.2c.638-.638 1.277-1.274 1.935-1.93 4.352-4.375 8.45-8.923 12.467-13.606l2.992-3.457c36.166-42.027 66.804-87.477 92.021-136.86l.938-1.833q1.263-2.476 2.522-4.954c1.42-2.695 2.96-5.285 4.527-7.896.75-1.817 1.455-3.652 2.125-5.5 2.29-6.098 4.796-12.082 7.375-18.062l1.2-2.792a973 973 0 0 1 4.71-10.818c4.24-9.716 7.34-19.862 10.632-29.928a504 504 0 0 1 2.56-7.54c9.606-27.713 16.421-56.591 20.539-85.61.492-3.466 1.079-6.861 1.84-10.277 1.524-7.375 2.098-14.897 2.824-22.383q.384-3.934.783-7.865c1.984-19.897 2.651-39.604 2.662-59.6l.003-3.852c-.02-36.245-1.153-73.489-9.597-108.902-.73-3.195-1.218-6.366-1.593-9.621-8.016-59.684-34.41-121.891-63.687-173.795a477 477 0 0 1-3.821-6.97c-10.828-20.017-23.24-39.044-36.555-57.485l-1.746-2.433c-7.854-10.924-16.088-21.44-24.736-31.745-2.062-2.475-4.068-4.994-6.08-7.51-4.017-4.924-8.3-9.57-12.659-14.192-2.673-2.835-5.281-5.698-7.806-8.667-5.058-5.814-10.569-11.198-16.025-16.635a2553 2553 0 0 1-5.634-5.64c-5.936-5.94-11.898-11.751-18.314-17.178a1303 1303 0 0 1-4.875-4.437 241 241 0 0 0-12.328-10.356 521 521 0 0 1-6.094-4.883c-40.057-32.523-84.213-59.017-130.822-80.951a271 271 0 0 1-7.21-3.576c-3.768-1.903-7.638-3.373-11.609-4.797-4.38-1.601-8.704-3.218-12.937-5.187-3.815-1.759-7.687-2.948-11.723-4.098A83 83 0 0 1 826 44.5c-3.714-1.438-7.483-2.57-11.312-3.656-2.161-.679-4.288-1.465-6.399-2.285-4.551-1.728-9.183-2.873-13.914-3.996-5.957-1.448-11.87-2.952-17.75-4.688-5.666-1.652-11.349-2.97-17.129-4.156a375 375 0 0 1-6.96-1.5c-7.467-1.68-14.864-2.883-22.454-3.79C727 20 727 20 724 19a244 244 0 0 0-6.527-.902l-1.972-.25A1739 1739 0 0 0 691 15l-3.412-.381c-34.19-3.629-70.314-3.444-104.506.069"/><path fill="#9d9c9c" d="M630 108h2c43.85 89.332 43.85 89.332 62.205 127.289q2.609 5.39 5.22 10.777c13.034 26.908 25.83 53.929 38.54 80.99a7125 7125 0 0 0 15.489 32.726c6.296 13.23 12.555 26.475 18.7 39.777q4.4 9.521 8.893 19l1.066 2.248 2.167 4.571a2317 2317 0 0 1 18.134 39.147c4.962 10.982 10.05 21.898 15.211 32.788l4.324 9.125 1.055 2.225c6.85 14.466 13.542 29.007 20.238 43.544l5.729 12.432a4169 4169 0 0 0 17.212 36.841c5.142 10.885 10.153 21.823 15.106 32.795 5.192 11.491 10.545 22.9 15.961 34.288 5.211 10.957 10.395 21.92 15.423 32.964 4.523 9.928 9.112 19.825 13.702 29.723l1.252 2.701q6.859 14.793 13.728 29.58 1.56 3.357 3.116 6.716a2484 2484 0 0 0 7.115 15.243q1.292 2.745 2.578 5.493 1.606 3.429 3.232 6.849l1.436 3.074 1.273 2.698C961 806 961 806 961 810H664c-2.625 28.287-2.625 28.287 5 35 2.69.594 2.69.594 5.702.497l3.545.027 3.898-.032q2.07.005 4.139.014c3.795.013 7.59 0 11.385-.016 4.091-.013 8.183-.003 12.274.004q10.638.013 21.276-.008c10.263-.02 20.525-.013 30.787 0q24.993.033 49.984.023h3.022l45.477-.018 3.015-.001q24.89-.007 49.78.027 15.354.02 30.707-.008 10.522-.018 21.046.001c4.048.007 8.095.007 12.142-.01q5.562-.023 11.122.003c1.973.005 3.945-.01 5.917-.027 7.99.06 13.58.898 19.805 6.27l1.352 1.692 1.398 1.683c4.225 6.472 3.6 13.481 3.598 20.916.004 2.259.04 4.515.078 6.774.121 15.326.121 15.326-5.826 21.654-7.274 6.542-13.705 6.97-23.065 6.92l-3.855.017c-3.54.014-7.08.01-10.62.002-3.848-.005-7.696.008-11.544.018q-10.122.022-20.242.016c-10.033-.004-20.067.008-30.1.024-18.961.029-37.922.037-56.884.04a78645 78645 0 0 0-56.555.024l-3.173.002q-44.182.03-88.366.03h-3.367l-16.892-.002h-10.173q-52.788-.002-105.576.061a95922 95922 0 0 1-131.202.07l-3.143-.001c-16.707 0-33.414.02-50.121.045q-25.178.037-50.354.009-14.964-.02-29.929.023-9.99.027-19.983-.007c-3.797-.012-7.594-.014-11.391.01-4.09.026-8.179.006-12.269-.02l-3.574.046c-7.602-.1-12.56-1.625-18.245-6.792-6.544-7.425-6.246-14.491-6.295-23.886a385 385 0 0 0-.062-4.576c-.334-17.21-.334-17.21 6.138-24.561l1.719-1.352 1.719-1.398c3.899-2.685 6.659-3.477 11.429-3.48l3.508-.017 3.857.012 4.096-.011c3.755-.01 7.51-.008 11.266-.004 4.048.003 8.097-.006 12.145-.014q10.525-.017 21.05-.018c10.15-.001 20.3-.016 30.451-.035a62677 62677 0 0 1 52.413-.077 106650 106650 0 0 1 47.974-.042q24.618-.02 49.234-.071 15.19-.03 30.38-.028 10.406 0 20.81-.027 6.007-.017 12.015-.007 5.496.01 10.993-.017a751 751 0 0 1 5.87.013l3.517-.025 3.034-.002c3.307-.272 3.307-.272 7.739-3.377l1-32H301c1.125-6.75 1.125-6.75 2.547-9.7l.953-2.007 1.035-2.121 1.082-2.266c1.141-2.39 2.293-4.773 3.445-7.156q2.242-4.662 4.473-9.328l1.12-2.337c3.01-6.308 5.875-12.675 8.675-19.078a231 231 0 0 1 5.858-12.382c3.349-6.594 6.463-13.285 9.562-20 5.444-11.787 10.982-23.527 16.563-35.25a8830 8830 0 0 0 17.875-37.75l.984-2.093 4.88-10.387a35237 35237 0 0 1 10.878-23.13q5.687-12.092 11.398-24.171l4.36-9.219 1.083-2.29c4.702-9.947 9.363-19.91 13.979-29.898a1671 1671 0 0 1 12.813-27.062 1542 1542 0 0 0 13.64-28.982c4.326-9.412 8.74-18.78 13.172-28.143a5990 5990 0 0 0 15.688-33.375c10.934-23.472 21.988-46.889 33.08-70.287a11797 11797 0 0 0 15.92-33.713 32530 32530 0 0 1 16.625-35.312l1.083-2.298a3708 3708 0 0 1 15.567-32.546c3.717-7.704 7.332-15.45 10.912-23.219 5.299-11.493 10.796-22.881 16.35-34.253a1584 1584 0 0 0 15.577-32.87c4.1-8.89 8.348-17.701 12.635-26.502 5.291-10.861 10.42-21.772 15.188-32.875"/><path fill="#1a181a" d="m634.375 12.75 3.66-.004c20.48.005 40.622.956 60.965 3.254l3.756.404c9.678 1.046 19.276 2.126 28.81 4.112 3.936.783 7.903 1.337 11.871 1.922 6.012.918 11.808 2.012 17.645 3.75 3.857 1.074 7.755 1.904 11.668 2.75C780.908 30.715 788.954 32.76 797 35l3.762 1.035c5.532 1.546 10.971 3.134 16.312 5.25 2.301.854 4.631 1.533 6.989 2.215 4.138 1.214 7.984 2.766 11.937 4.5q2.589.952 5.188 1.875c4.983 1.788 9.852 3.784 14.726 5.852 3.087 1.274 6.202 2.432 9.336 3.586 7.106 2.714 13.786 6.095 20.543 9.566a469 469 0 0 0 6.863 3.402c41.66 20.375 81.12 46.003 116.813 75.621a409 409 0 0 0 5.187 4.227c5.736 4.607 11.214 9.416 16.578 14.446a229 229 0 0 0 8.282 7.421c5.823 5.07 11.218 10.59 16.666 16.056q2.816 2.82 5.64 5.634c5.94 5.936 11.753 11.897 17.178 18.314q2.18 2.412 4.375 4.813c3.843 4.263 7.518 8.633 11.125 13.097q2.729 3.374 5.5 6.711c7.535 9.115 14.589 18.495 21.418 28.149a970 970 0 0 0 4.645 6.48c17.317 24.096 32.22 49.817 45.663 76.249a816 816 0 0 0 3.34 6.478c22.73 44.036 38.987 91.76 49.934 140.023l.551 2.416c.901 3.995 1.74 7.976 2.387 12.022.57 3.533 1.145 7.065 1.75 10.593 3.073 17.98 5.727 35.951 7 54.157l.189 2.683c2.702 39.626 2.238 79.622-1.877 119.129l-.372 3.657c-1.38 13.153-3.55 26.085-6.172 39.043-.641 3.237-1.198 6.487-1.768 9.737-3.528 18.748-7.937 37.337-13.993 55.43-1.194 3.664-2.252 7.367-3.32 11.07-4.107 14.133-9.182 27.749-14.88 41.307q-1.294 3.078-2.58 6.16c-2.853 6.806-5.769 13.573-8.856 20.276a220 220 0 0 0-2.536 5.82c-7.589 17.436-16.96 34.088-26.523 50.5l-1.483 2.56c-12.207 21.006-25.802 41.114-40.517 60.44l-1.79 2.352c-7.045 9.223-14.255 18.272-21.84 27.056a787 787 0 0 0-4.296 5.045l-3.012 3.547-1.3 1.542c-9.49 11.118-19.698 21.558-30.045 31.872q-2.973 2.966-5.936 5.941c-6.09 6.095-12.181 12.098-18.781 17.645a1144 1144 0 0 0-3.57 3.14c-8.264 7.245-16.695 14.192-25.43 20.86l-1.894 1.448C950.862 1156.43 903.672 1184.975 853 1205q-3.096 1.307-6.187 2.625c-5.78 2.405-11.637 4.526-17.55 6.578-2.588.911-5.163 1.855-7.74 2.797-25.002 9.033-50.644 15.684-76.785 20.482a290 290 0 0 0-7.64 1.565c-16.806 3.575-33.899 5.112-50.98 6.747q-2.838.278-5.672.574c-44.051 4.515-88.967 2.264-132.731-3.907l-2.613-.368c-6.031-.876-11.951-2.065-17.894-3.42-3.156-.662-6.27-1.1-9.47-1.493-8.852-1.24-17.451-3.311-26.113-5.493-.858-.214-1.715-.43-2.599-.65-39.085-9.856-76.67-23.644-113.026-41.037l-2.581-1.224c-13.256-6.318-25.915-13.533-38.522-21.052a1258 1258 0 0 0-8.198-4.83c-11.586-6.812-22.706-14.165-33.699-21.894l-3.562-2.48c-14.331-10.047-28.366-20.629-41.602-32.082-2.735-2.352-5.523-4.619-8.336-6.876-5.877-4.785-11.391-9.92-16.92-15.096-2.355-2.185-4.754-4.32-7.143-6.466-5.73-5.248-11.247-10.701-16.75-16.187l-2.57-2.557c-4.35-4.36-8.55-8.787-12.564-13.458-2.245-2.599-4.587-5.097-6.928-7.61a273 273 0 0 1-12.133-14.106 490 490 0 0 0-5.672-6.883c-8.723-10.419-16.9-21.155-24.82-32.199l-1.798-2.498c-7.757-10.807-15.05-21.787-21.841-33.225a636 636 0 0 0-4.216-6.933c-15.163-24.755-28.772-50.623-39.922-77.442-1.17-2.777-2.432-5.491-3.723-8.215-2.984-6.533-5.273-13.291-7.596-20.079a789 789 0 0 0-3.04-8.569 476 476 0 0 1-13.069-42.932 736 736 0 0 0-2.315-8.775C28.99 748.075 24.05 719.057 21 690l-.355-3.233c-1.894-18.065-1.85-36.186-1.895-54.33l-.016-3.621c-.078-22.816.97-45.57 4.078-68.191.26-1.92.26-1.92.523-3.879.535-3.918 1.097-7.832 1.665-11.746l.526-3.677c4.012-27.455 9.9-55.158 18.566-81.55a984 984 0 0 0 2.63-8.189C55.864 422.902 66.994 395.16 80 368l1.318-2.769c6.64-13.87 14.088-27.17 21.974-40.366 1.617-2.712 3.216-5.433 4.81-8.158 6.339-10.783 13.113-21.181 20.295-31.42 1.577-2.25 3.141-4.506 4.705-6.764A464 464 0 0 1 153 252l1.55-1.933c10.904-13.587 22.135-26.794 34.024-39.527 2.21-2.386 4.374-4.812 6.551-7.227 4.89-5.34 9.951-10.497 15.063-15.625.748-.754 1.496-1.507 2.268-2.282a237 237 0 0 1 12.71-11.818c2.609-2.26 5.121-4.61 7.647-6.963a273 273 0 0 1 14.105-12.133c2.314-1.87 4.604-3.76 6.883-5.672C280.728 126.27 310.262 106.016 341 89l1.732-.96c44.415-24.586 92.122-45.103 141.77-56.432 3.18-.774 6.327-1.651 9.482-2.518 8.287-2.245 16.65-3.97 25.079-5.59l2.345-.454C544.076 18.676 566.962 15.592 590 14l3.715-.263c13.545-.892 27.09-.978 40.66-.987m-64.5 60.938-2.185.256C551.635 75.84 535.825 78.714 520 82l-3.69.759C501.636 85.806 487.25 89.354 473 94l-3.22 1.044c-23.405 7.175-23.405 7.175-45.76 16.976-2.611 1.267-5.296 2.229-8.02 3.23-7.077 2.684-13.746 5.969-20.457 9.44-2.924 1.507-5.859 2.994-8.793 4.482-19.292 9.835-38.104 20.301-55.95 32.592a665 665 0 0 1-5.675 3.841c-31.007 20.915-59.266 45.537-85.762 71.857a1773 1773 0 0 1-3.43 3.396c-6.412 6.34-12.446 12.752-18.07 19.813-2.138 2.673-4.388 5.153-6.738 7.642-5.156 5.622-9.863 11.527-14.501 17.575-1.81 2.354-3.633 4.697-5.456 7.042-7.977 10.308-15.59 20.75-22.647 31.71a1264 1264 0 0 1-4.88 7.493c-17.054 26.227-35.642 55.744-45.703 85.555-1.113 3.162-2.283 6.113-3.876 9.062-2.613 4.98-4.175 10.355-5.902 15.688-1.637 5.027-3.422 9.926-5.597 14.75-2.357 5.424-3.896 11.147-5.563 16.812l-.969 3.285A984 984 0 0 0 93 488l-.582 2.068C84.078 519.853 78.458 551.154 76 582l-.269 3.097c-3.384 39.726-2.017 78.74 2.94 118.275.3 2.395.59 4.79.88 7.187 3.265 26.697 8.871 55.038 18.598 80.201 1.313 3.457 2.294 6.994 3.288 10.553 3.043 10.567 6.633 20.726 11.229 30.729 1.758 3.898 3.389 7.845 5.023 11.797C127.312 867.044 138.279 889.34 151 911l1.527 2.627c7.28 12.517 15.14 24.534 23.473 36.373l1.383 1.977c20.68 29.517 44.205 56.631 69.617 82.148l2.354 2.368c4.157 4.146 8.401 8.126 12.85 11.957 2.42 2.088 4.761 4.257 7.108 6.425 5.403 4.92 10.977 9.569 16.688 14.125l1.54 1.236c25.675 20.578 52.906 39.396 81.46 55.764l2.195 1.269C386.31 1135.97 401.887 1144.3 418 1151l3.43 1.5c5.72 2.49 11.39 4.88 17.352 6.74 2.218.76 4.297 1.661 6.425 2.643 4.487 2.015 9.023 3.751 13.668 5.367l2.541.886c7.452 2.553 14.973 4.864 22.522 7.114l3.333.997c6.538 1.92 13.094 3.583 19.743 5.074 2.53.575 5.04 1.194 7.548 1.855 27.568 7.148 56.095 10.618 84.438 12.824l2.524.214c10.745.9 21.513.883 32.289.911l2.104.008c19.257.056 38.33-1.106 57.458-3.32.95-.11 1.9-.218 2.878-.33 31.692-3.673 63.133-9.996 93.36-20.345a248 248 0 0 1 9.7-3.013c7.64-2.32 15.03-5.263 22.438-8.227q2.265-.904 4.537-1.792c28.07-11.037 54.884-24.574 80.712-40.106l2.836-1.702c12.085-7.281 23.786-14.955 35.164-23.298l2.025-1.48c10.257-7.516 20.198-15.39 29.975-23.52l1.788-1.483c13.766-11.469 26.646-23.878 39.337-36.517l2.368-2.354c4.134-4.146 8.1-8.378 11.921-12.815 2.278-2.63 4.651-5.161 7.024-7.706 3.995-4.329 7.79-8.752 11.421-13.395a398 398 0 0 1 4.844-6.054c18.234-22.401 34.961-46.589 49.297-71.676l1.037-1.792c7.053-12.188 13.58-24.658 19.963-37.208l1.3-2.548c7.864-15.543 14.09-31.717 20.325-47.961a234 234 0 0 1 2.96-7.187c1.645-3.84 2.983-7.716 4.29-11.679l.7-2.074c4.392-13.226 8.076-26.648 11.428-40.17.558-2.25 1.124-4.497 1.69-6.744 4.443-17.732 7.989-35.455 10.432-53.574l.39-2.88c3.492-26.055 4.625-51.913 4.735-78.183l.017-2.604a279 279 0 0 0-1.802-32.992c-.444-3.97-.678-7.912-.84-11.904-2.574-44.11-13.84-89.189-28.93-130.583a627 627 0 0 1-2.039-5.722c-2.398-6.8-4.906-13.53-7.656-20.195l-1.148-2.824a429 429 0 0 0-8.875-20.1q-1.068-2.27-2.125-4.542C1113.206 356.68 1091.622 321.012 1066 288l-1.396-1.812c-6.63-8.603-13.522-16.954-20.604-25.188l-1.754-2.062c-9.545-11.1-19.79-21.577-30.121-31.938l-2.665-2.678A279 279 0 0 0 994 210a1251 1251 0 0 1-4.812-4.375c-5.25-4.73-10.684-9.196-16.188-13.625l-3.54-2.883C961.198 182.41 952.779 176.022 944 170l-2.566-1.766C926.674 158.122 911.612 148.738 896 140l-3.132-1.757c-18.967-10.581-38.462-20.48-58.71-28.398a337 337 0 0 1-6.533-2.657c-8.433-3.36-17.033-6.266-25.625-9.188l-2.825-.97C781.048 90.847 762.658 86.232 744 82l-2.933-.672c-14.303-3.23-28.806-5.078-43.352-6.858-3.34-.423-6.669-.896-10-1.388-16.103-2.223-32.111-2.346-48.34-2.332l-3.363.002c-22.068.045-44.206.281-66.137 2.936"/><path fill="#da131c" d="M732.75 510.375c15.093 12.788 28.74 30.472 30.439 50.897.078 2.392.084 4.773.061 7.165l.023 2.409c-.03 9.455-2.488 17.558-6.273 26.154l-.984 2.363c-12.051 26.679-38.78 42.822-64.88 53.203-6.735 2.51-13.43 4.32-20.491 5.66-2.964.867-3.864 1.287-5.645 3.774-.459 3.282-.459 3.282-.388 7.13l-.016 2.214c-.014 2.455-.007 4.91 0 7.365l-.02 5.272c-.019 4.78-.018 9.558-.012 14.337.003 3.986-.003 7.972-.009 11.958q-.02 14.104-.001 28.208c.011 9.707-.003 19.414-.03 29.121q-.032 12.492-.022 24.984.007 7.464-.017 14.93-.021 7.019.008 14.038.005 2.578-.01 5.156c-.013 2.344-.002 4.687.016 7.03v3.978c.601 3.934 1.416 4.856 4.501 7.279 2.69.594 2.69.594 5.702.497l3.545.027 3.898-.032q2.07.005 4.139.014c3.795.013 7.59 0 11.385-.016 4.091-.013 8.183-.003 12.274.004q10.638.013 21.276-.008c10.263-.02 20.525-.013 30.787 0a30800 30800 0 0 0 53.006.022l45.477-.017 3.015-.001q24.89-.007 49.78.027 15.354.02 30.707-.008 10.522-.018 21.046.001c4.048.007 8.095.007 12.142-.01q5.562-.023 11.122.003c1.973.005 3.945-.01 5.917-.027 7.99.06 13.58.898 19.805 6.27l1.352 1.692 1.398 1.683c4.225 6.472 3.6 13.481 3.598 20.916.004 2.259.04 4.515.078 6.774.121 15.326.121 15.326-5.826 21.654-7.274 6.542-13.705 6.97-23.065 6.92l-3.855.017c-3.54.014-7.08.01-10.62.002-3.848-.005-7.696.008-11.544.018q-10.122.022-20.242.016c-10.033-.004-20.067.008-30.1.024-18.961.029-37.922.037-56.884.04a78645 78645 0 0 0-56.555.024l-3.173.002q-44.182.03-88.366.03h-3.367l-16.892-.002h-10.173q-52.788-.002-105.576.061a95922 95922 0 0 1-131.202.07l-3.143-.001c-16.707 0-33.414.02-50.121.045q-25.178.038-50.354.009-14.964-.02-29.929.023-9.99.027-19.983-.007c-3.797-.012-7.594-.014-11.391.01-4.09.026-8.179.006-12.269-.02l-3.574.046c-7.602-.1-12.56-1.625-18.245-6.792-6.544-7.425-6.246-14.491-6.295-23.886a385 385 0 0 0-.062-4.576c-.334-17.21-.334-17.21 6.138-24.561l1.719-1.352 1.719-1.398c3.899-2.685 6.659-3.477 11.429-3.48l3.508-.017 3.857.012 4.096-.011c3.755-.01 7.51-.008 11.266-.004 4.048.003 8.097-.006 12.145-.014q10.525-.017 21.05-.018c10.15-.001 20.3-.016 30.451-.035q24.712-.046 49.425-.073l2.988-.004a106650 106650 0 0 1 47.974-.042q24.618-.02 49.234-.071 15.19-.03 30.38-.028 10.406 0 20.81-.027c4.005-.01 8.01-.015 12.015-.007q5.496.01 10.993-.017a751 751 0 0 1 5.87.013l3.517-.025 3.034-.002c3.227-.444 5.119-1.471 7.739-3.377 1.476-2.952 1.14-5.592 1.154-8.889l.013-2.172q.019-3.621.026-7.243l.025-5.178c.026-5.68.041-11.358.055-17.038l.017-5.86q.033-12.183.051-24.368.023-17.476.107-34.952.056-12.28.063-24.561c.004-4.893.016-9.785.048-14.677q.044-6.903.025-13.806 0-2.535.025-5.069c.023-2.306.015-4.61-.001-6.918l.01-3.91c-.779-4.234-2.32-5.688-5.618-8.359-2.265-1.104-2.265-1.104-4.66-1.625l-2.636-.693-2.766-.682q-2.856-.765-5.708-1.543l-2.756-.751C550.848 649.249 535.398 640.366 523 630l-1.526-1.273c-15.288-12.909-27.637-30.306-29.79-50.724-.156-3.112-.203-6.2-.184-9.316l.017-3.324c.192-8.719 1.46-15.53 5.483-23.363l1.469-3.012c15.179-28.46 45.25-45.995 75.233-55.183 3.738-1.062 7.51-1.944 11.298-2.805l2.421-.59c49.117-11.685 105.531-1.349 145.329 29.965"/><path fill="#d9151c" d="m634.688 45.813 3.514-.004c21.48.002 42.487.965 63.798 3.691l3.047.387C736.589 53.951 767.647 60.474 798 70l3.74 1.158c3.82 1.184 7.635 2.385 11.447 3.592l3.494 1.105c5.587 1.806 10.968 3.767 16.296 6.234 3.133 1.411 6.347 2.513 9.586 3.661 6.535 2.376 12.683 5.245 18.86 8.43 3.456 1.779 6.863 3.405 10.514 4.757 41.468 15.928 83.84 45.62 117.157 74.555 2.756 2.379 5.566 4.668 8.406 6.946 5.857 4.77 11.359 9.883 16.87 15.044a431 431 0 0 0 4.677 4.284c6.786 6.152 13.34 12.517 19.828 18.984l2.415 2.4c4.776 4.79 9.3 9.724 13.71 14.85q2.18 2.412 4.375 4.813c4.73 5.249 9.195 10.683 13.625 16.187l2.777 3.398C1087.66 275 1098.51 290.378 1109 306l1.318 1.96c20.237 30.278 39.258 63.103 52.057 97.29 1.53 4.02 3.143 7.933 5 11.813 3.874 8.387 6.7 17.185 9.625 25.937l.982 2.934c13.66 41.094 22.562 83.013 27.018 126.066l.251 2.187c2.045 17.833 2.146 35.64 2.124 53.563v4.677c-.015 24.713-1.037 49.06-4.375 73.573l-.501 3.83A468 468 0 0 1 1199 732l-.566 3.114c-6.815 36.854-15.9 75.219-31.363 109.498-1.934 4.313-3.776 8.666-5.633 13.013l-1.17 2.734q-2.07 4.836-4.136 9.673c-21.272 49.757-51.45 95.39-85.644 137.143a703 703 0 0 0-3.894 4.829c-4.896 6.093-10.066 11.861-15.407 17.562-2.502 2.673-4.938 5.4-7.37 8.137-4.658 5.186-9.517 10.149-14.456 15.066-1.43 1.424-2.853 2.854-4.277 4.284-4.662 4.655-9.367 9.186-14.37 13.474-2.34 2.01-4.583 4.12-6.839 6.223-5.206 4.747-10.648 9.098-16.219 13.406-3.058 2.366-6.065 4.787-9.064 7.226-29.733 24.104-62.46 43.244-96.118 61.263-2.177 1.192-4.297 2.445-6.42 3.73C873 1164 873 1164 869 1164v2l-2.238.918c-4.963 2.05-9.898 4.121-14.762 6.395-17.07 7.821-34.86 14.578-52.969 19.562-3.18.876-6.34 1.806-9.5 2.75C752.23 1206.75 713.86 1214.18 675 1217l-3.483.263c-33.948 2.384-68.739 2.05-102.517-2.263l-2.376-.301c-29.34-3.762-58.268-9.153-86.624-17.699l-2.994-.895C458.332 1190.51 440.03 1184.41 422 1177l-3.32-1.348c-4.97-2.036-9.817-4.165-14.583-6.637-2.167-1.049-4.351-1.907-6.6-2.761-5.976-2.37-11.624-5.264-17.31-8.254l-3.308-1.735c-17.704-9.342-34.669-19.481-51.333-30.574a801 801 0 0 0-6.663-4.375c-18.844-12.298-36.721-26.093-53.813-40.714-2.747-2.345-5.558-4.6-8.382-6.852-13.04-10.684-24.829-22.795-36.75-34.687l-1.929-1.92c-6.555-6.535-13.052-13.05-19.009-20.143a1543 1543 0 0 0-2.922-3.352 515 515 0 0 1-18.646-22.795 1064 1064 0 0 0-4.448-5.705C149.154 954.558 128.716 921.472 111 887l-1.013-1.948c-4.018-7.74-7.687-15.441-10.71-23.634-1.513-4.049-3.131-8.047-4.777-12.043l-.906-2.203a285 285 0 0 0-5.344-12.11c-1.898-4.093-3.268-8.155-4.47-12.5-.7-2.297-1.532-4.39-2.495-6.585-3.122-7.708-5.236-15.75-7.494-23.742a2162 2162 0 0 0-2.37-8.3 546 546 0 0 1-11.984-51.31l-.459-2.487c-2.475-13.485-4.438-26.938-5.645-40.603-.25-2.65-.533-5.285-.843-7.927-1.605-14.213-1.765-28.325-1.696-42.618.018-3.918.02-7.836.02-11.754.028-21.51.657-42.71 3.436-64.048l.33-2.602c1.718-13.455 3.929-26.721 6.86-39.97.53-2.477 1.002-4.955 1.447-7.448 1.936-10.727 4.659-21.184 7.613-31.668l.58-2.064A493 493 0 0 1 79 454q.693-2.084 1.379-4.172l1.183-3.578 1.192-3.61c5.554-16.225 11.8-32.483 19.75-47.687 1.418-2.799 2.6-5.597 3.746-8.515 9.207-22.557 22.812-43.62 35.625-64.25.89-1.44.89-1.44 1.8-2.908 3.597-5.739 7.412-11.255 11.432-16.706 2.15-2.925 4.23-5.893 6.303-8.873A423 423 0 0 1 180 269l1.697-2.096c6.287-7.744 12.614-15.422 19.358-22.775a273 273 0 0 0 5.507-6.254c3.005-3.456 6.207-6.663 9.47-9.875 1.908-1.939 3.695-3.937 5.468-6 5.389-6.244 11.25-11.848 17.5-17.219 2.083-1.855 4.043-3.793 6-5.781 3.836-3.88 7.849-7.463 12-11l2.797-2.426c8.021-6.917 16.35-13.38 24.81-19.75a446 446 0 0 0 5.243-4.064c7.89-6.192 16.043-11.886 24.406-17.42q3.17-2.102 6.33-4.217c8.982-5.984 18.112-11.651 27.414-17.123l2.696-1.602C361.253 115.134 371.91 109.262 383 104l3.245-1.542q4.596-2.176 9.2-4.334 2.725-1.276 5.445-2.557c6.14-2.853 12.266-5.48 18.666-7.692 2.634-.943 5.189-2.016 7.757-3.125 27.002-11.288 55.114-19.259 83.625-25.687l2.476-.562c11.096-2.501 22.213-4.51 33.462-6.183 3.02-.452 6.034-.936 9.05-1.416 26.299-4.046 52.2-5.076 78.761-5.09m-64.813 27.874-2.185.257C551.635 75.84 535.825 78.714 520 82l-3.69.759C501.636 85.806 487.25 89.354 473 94l-3.22 1.044c-23.405 7.175-23.405 7.175-45.76 16.976-2.611 1.267-5.296 2.229-8.02 3.23-7.077 2.684-13.746 5.969-20.457 9.44-2.924 1.507-5.859 2.994-8.793 4.482-19.292 9.835-38.104 20.301-55.95 32.592a665 665 0 0 1-5.675 3.841c-31.007 20.915-59.266 45.537-85.762 71.857a1773 1773 0 0 1-3.43 3.396c-6.412 6.34-12.446 12.752-18.07 19.813-2.138 2.673-4.388 5.153-6.738 7.642-5.156 5.622-9.863 11.527-14.501 17.575-1.81 2.354-3.633 4.697-5.456 7.042-7.977 10.308-15.59 20.75-22.647 31.71a1264 1264 0 0 1-4.88 7.493c-17.054 26.227-35.642 55.744-45.703 85.555-1.113 3.162-2.283 6.113-3.876 9.062-2.613 4.98-4.175 10.355-5.902 15.688-1.637 5.027-3.422 9.926-5.597 14.75-2.357 5.424-3.896 11.147-5.563 16.812l-.969 3.285A984 984 0 0 0 93 488l-.582 2.068C84.078 519.853 78.458 551.154 76 582l-.269 3.097c-3.384 39.726-2.017 78.74 2.94 118.275.3 2.395.59 4.79.88 7.187 3.265 26.697 8.871 55.038 18.598 80.201 1.313 3.457 2.294 6.994 3.288 10.553 3.043 10.567 6.633 20.726 11.229 30.729 1.758 3.898 3.389 7.845 5.023 11.797C127.312 867.044 138.279 889.34 151 911l1.527 2.627c7.28 12.517 15.14 24.534 23.473 36.373l1.383 1.977c20.68 29.517 44.205 56.631 69.617 82.148l2.354 2.368c4.157 4.146 8.401 8.126 12.85 11.957 2.42 2.088 4.761 4.257 7.108 6.425 5.403 4.92 10.977 9.569 16.688 14.125l1.54 1.236c25.675 20.578 52.906 39.396 81.46 55.764l2.195 1.269C386.31 1135.97 401.887 1144.3 418 1151l3.43 1.5c5.72 2.49 11.39 4.88 17.352 6.74 2.218.76 4.297 1.661 6.425 2.643 4.487 2.015 9.023 3.751 13.668 5.367l2.541.886c7.452 2.553 14.973 4.864 22.522 7.114l3.333.997c6.538 1.92 13.094 3.583 19.743 5.074 2.53.575 5.04 1.194 7.548 1.855 27.568 7.148 56.095 10.618 84.438 12.824l2.524.214c10.745.9 21.513.883 32.289.911l2.104.008c19.257.056 38.33-1.106 57.458-3.32.95-.11 1.9-.218 2.878-.33 31.692-3.673 63.133-9.996 93.36-20.345a248 248 0 0 1 9.7-3.013c7.64-2.32 15.03-5.263 22.438-8.227q2.265-.904 4.537-1.792c28.07-11.037 54.884-24.574 80.712-40.106l2.836-1.702c12.085-7.281 23.786-14.955 35.164-23.298l2.025-1.48c10.257-7.516 20.198-15.39 29.975-23.52l1.788-1.483c13.766-11.469 26.646-23.878 39.337-36.517l2.368-2.354c4.134-4.146 8.1-8.378 11.921-12.815 2.278-2.63 4.651-5.161 7.024-7.706 3.995-4.329 7.79-8.752 11.421-13.395a398 398 0 0 1 4.844-6.054c18.234-22.401 34.961-46.589 49.297-71.676l1.037-1.792c7.053-12.188 13.58-24.658 19.963-37.208l1.3-2.548c7.864-15.543 14.09-31.717 20.325-47.961a234 234 0 0 1 2.96-7.187c1.645-3.84 2.983-7.716 4.29-11.679l.7-2.074c4.392-13.226 8.076-26.648 11.428-40.17.558-2.25 1.124-4.497 1.69-6.744 4.443-17.732 7.989-35.455 10.432-53.574l.39-2.88c3.492-26.055 4.625-51.913 4.735-78.183l.017-2.604a279 279 0 0 0-1.802-32.992c-.444-3.97-.678-7.912-.84-11.904-2.574-44.11-13.84-89.189-28.93-130.583a627 627 0 0 1-2.039-5.722c-2.398-6.8-4.906-13.53-7.656-20.195l-1.148-2.824a429 429 0 0 0-8.875-20.1q-1.068-2.27-2.125-4.542C1113.206 356.68 1091.622 321.012 1066 288l-1.396-1.812c-6.63-8.603-13.522-16.954-20.604-25.188l-1.754-2.062c-9.545-11.1-19.79-21.577-30.121-31.938l-2.665-2.678A279 279 0 0 0 994 210a1251 1251 0 0 1-4.812-4.375c-5.25-4.73-10.684-9.196-16.188-13.625l-3.54-2.883C961.198 182.41 952.779 176.022 944 170l-2.566-1.766C926.674 158.122 911.612 148.738 896 140l-3.132-1.757c-18.967-10.581-38.462-20.48-58.71-28.398a337 337 0 0 1-6.533-2.657c-8.433-3.36-17.033-6.266-25.625-9.188l-2.825-.97C781.048 90.847 762.658 86.232 744 82l-2.933-.672c-14.303-3.23-28.806-5.078-43.352-6.858-3.34-.423-6.669-.896-10-1.388-16.103-2.223-32.111-2.346-48.34-2.332l-3.363.002c-22.068.045-44.206.281-66.137 2.936"/><path fill="#0f0c0e" d="M732.75 510.375c15.093 12.788 28.74 30.472 30.439 50.897.078 2.392.084 4.773.061 7.165l.023 2.409c-.03 9.455-2.488 17.558-6.273 26.154l-.984 2.363c-12.051 26.679-38.78 42.822-64.88 53.203-6.735 2.51-13.43 4.32-20.491 5.66-2.964.867-3.864 1.287-5.645 3.774-.459 3.282-.459 3.282-.388 7.13l-.016 2.214c-.014 2.455-.007 4.91 0 7.365l-.02 5.272c-.019 4.78-.018 9.558-.012 14.337.003 3.986-.003 7.972-.009 11.958q-.02 14.104-.001 28.208c.011 9.707-.003 19.414-.03 29.121q-.032 12.492-.022 24.984.007 7.464-.017 14.93-.021 7.019.008 14.038.005 2.578-.01 5.156c-.013 2.344-.002 4.687.016 7.03v3.978c.601 3.934 1.416 4.856 4.501 7.279 2.69.594 2.69.594 5.702.497l3.545.027 3.898-.032q2.07.005 4.139.014c3.795.013 7.59 0 11.385-.016 4.091-.013 8.183-.003 12.274.004q10.638.013 21.276-.008c10.263-.02 20.525-.013 30.787 0a30800 30800 0 0 0 53.006.022l45.477-.017 3.015-.001q24.89-.007 49.78.027 15.354.02 30.707-.008 10.522-.018 21.046.001c4.048.007 8.095.007 12.142-.01q5.562-.023 11.122.003c1.973.005 3.945-.01 5.917-.027 7.99.06 13.58.898 19.805 6.27l1.352 1.692 1.398 1.683c4.225 6.472 3.6 13.481 3.598 20.916.004 2.259.04 4.515.078 6.774.121 15.326.121 15.326-5.826 21.654-7.274 6.542-13.705 6.97-23.065 6.92l-3.855.017c-3.54.014-7.08.01-10.62.002-3.848-.005-7.696.008-11.544.018q-10.122.022-20.242.016c-10.033-.004-20.067.008-30.1.024-18.961.029-37.922.037-56.884.04a78645 78645 0 0 0-56.555.024l-3.173.002q-44.182.03-88.366.03h-3.367l-16.892-.002h-10.173q-52.788-.002-105.576.061a95922 95922 0 0 1-131.202.07l-3.143-.001c-16.707 0-33.414.02-50.121.045q-25.178.038-50.354.009-14.964-.02-29.929.023-9.99.027-19.983-.007c-3.797-.012-7.594-.014-11.391.01-4.09.026-8.179.006-12.269-.02l-3.574.046c-7.602-.1-12.56-1.625-18.245-6.792-6.544-7.425-6.246-14.491-6.295-23.886a385 385 0 0 0-.062-4.576c-.334-17.21-.334-17.21 6.138-24.561l1.719-1.352 1.719-1.398c3.899-2.685 6.659-3.477 11.429-3.48l3.508-.017 3.857.012 4.096-.011c3.755-.01 7.51-.008 11.266-.004 4.048.003 8.097-.006 12.145-.014q10.525-.017 21.05-.018c10.15-.001 20.3-.016 30.451-.035q24.712-.046 49.425-.073l2.988-.004a106650 106650 0 0 1 47.974-.042q24.618-.02 49.234-.071 15.19-.03 30.38-.028 10.406 0 20.81-.027c4.005-.01 8.01-.015 12.015-.007q5.496.01 10.993-.017a751 751 0 0 1 5.87.013l3.517-.025 3.034-.002c3.227-.444 5.119-1.471 7.739-3.377 1.476-2.952 1.14-5.592 1.154-8.889l.013-2.172q.019-3.621.026-7.243l.025-5.178c.026-5.68.041-11.358.055-17.038l.017-5.86q.033-12.183.051-24.368.023-17.476.107-34.952.056-12.28.063-24.561c.004-4.893.016-9.785.048-14.677q.044-6.903.025-13.806 0-2.535.025-5.069c.023-2.306.015-4.61-.001-6.918l.01-3.91c-.779-4.234-2.32-5.688-5.618-8.359-2.265-1.104-2.265-1.104-4.66-1.625l-2.636-.693-2.766-.682q-2.856-.765-5.708-1.543l-2.756-.751C550.848 649.249 535.398 640.366 523 630l-1.526-1.273c-15.288-12.909-27.637-30.306-29.79-50.724-.156-3.112-.203-6.2-.184-9.316l.017-3.324c.192-8.719 1.46-15.53 5.483-23.363l1.469-3.012c15.179-28.46 45.25-45.995 75.233-55.183 3.738-1.062 7.51-1.944 11.298-2.805l2.421-.59c49.117-11.685 105.531-1.349 145.329 29.965m-165.375-6.687c-2.787 1.206-5.493 2.351-8.375 3.312v2l-2.148.313c-9.833 2.37-18.47 10.107-25.852 16.687l-2.629 2.34c-10.625 10.009-18.43 22.492-19.676 37.273-.307 15.899 4.898 30.229 15.805 41.95 1.798 1.856 3.635 3.646 5.5 5.437l1.988 1.977c14.103 13.227 32.712 20.99 50.89 26.699 8.3 2.625 15.054 4.923 20.26 12.392 3.31 6.933 2.426 15.151 2.395 22.664q.011 2.712.027 5.423a2246 2246 0 0 1 .01 14.684c-.005 4.093.002 8.185.01 12.278a8233 8233 0 0 1-.004 28.978c-.017 9.95 0 19.899.032 29.849q.039 12.834.025 25.67c-.005 5.104-.003 10.208.018 15.312q.025 7.203-.012 14.405-.008 2.635.01 5.27c.12 17.824.12 17.824-5.649 25.399-5.405 5.111-11.429 7.248-18.884 7.253l-3.514.017-3.831-.012-4.093.011c-3.743.01-7.486.008-11.23.004-4.038-.003-8.077.006-12.116.014q-10.495.017-20.99.018a17066 17066 0 0 0-30.356.035q-24.633.046-49.265.073l-2.978.004a105645 105645 0 0 1-44.855.04l-2.977.002q-24.546.02-49.092.071a13367 13367 0 0 1-30.293.028 7503 7503 0 0 0-20.739.027q-5.988.017-11.976.007-5.476-.01-10.953.017c-1.954.006-3.908-.004-5.862-.013l-3.49.025-3.024.002c-2.52.184-2.52.184-4.302 1.727-1.805 2.523-1.569 4.677-1.578 7.744l-.012 3.62.035 3.786-.035 3.785.022 6.944c.16 2.731.16 2.731 1.591 4.42 2.414 1.815 3.93 1.726 6.937 1.727l3.25.023 3.59-.021 3.814.013c3.517.011 7.033.004 10.549-.006 3.817-.007 7.634.003 11.45.01q10.047.015 20.092.003c9.958-.011 19.916-.006 29.875.004 17.782.015 35.565.014 53.347.005q23.342-.011 46.684-.006l3.124.001 12.552.003c39.277.01 78.555 0 117.832-.015q52.385-.021 104.768.001a182037 182037 0 0 0 130.142.01h3.116q23.333-.005 46.664.008 26.52.013 53.04-.01 14.855-.015 29.712.002 9.907.01 19.816-.01 5.655-.014 11.311 0c4.05.012 8.101 0 12.152-.013l3.59.02 3.25-.022h2.81c2.788-.45 3.681-1.115 5.33-3.376.464-2.853.464-2.853.398-6.094l.012-3.62-.035-3.786.035-3.785-.012-3.621-.01-3.323c-.164-2.726-.164-2.726-1.565-4.421-2.529-1.873-4.248-1.723-7.38-1.72l-3.525-.02-3.891.025q-2.06-.003-4.12-.01c-3.782-.008-7.564.002-11.346.016-4.076.01-8.152.004-12.227 0q-10.6-.008-21.201.01c-10.228.015-20.457.01-30.685-.002a42896 42896 0 0 0-49.825-.028h-3.014a55506 55506 0 0 0-36.286.013l-3.015.002-6.018.004c-.991 0-1.983 0-3.004.002q-24.805.014-49.61-.025-15.3-.022-30.599.011-10.49.021-20.981-.005c-4.034-.01-8.067-.01-12.1.01q-5.547.027-11.092-.008c-1.962-.006-3.924.013-5.885.033-8.315-.082-15.212-1.455-21.629-7.065-5.15-5.694-6.844-11.82-6.771-19.29l-.014-2.254a860 860 0 0 1 .007-7.424l-.016-5.343c-.014-4.827-.008-9.653.001-14.48.008-5.057 0-10.114-.004-15.17q-.007-12.74.016-25.48c.016-9.809.01-19.618-.006-29.428q-.02-12.645-.007-25.292.008-7.548-.005-15.094-.013-7.098.015-14.196a851 851 0 0 0-.004-5.2 734 734 0 0 1 .017-7.118l-.02-2.06c.076-6.269 1.636-11.596 5.588-16.452L657 648l1.504-1.238c5.084-3.674 10.758-5.108 16.718-6.749 24.249-6.825 49.129-21.142 62.278-43.173 6.998-13.25 9.81-26.468 6.316-41.344-6.385-19.521-21.573-33.43-38.816-43.496l-3.078-1.867c-38.457-22.187-94.035-24.135-134.547-6.445"/><path fill="#141415" d="M1100 523c6.852 4.574 12.415 9.527 16 17l1.813 3.438c2.856 8.227 2.585 20.496-.778 28.582-5.368 10.27-11.828 16.608-22.98 20.285-10.768 2.45-20.824.946-30.301-4.625-7.72-5.341-13.99-13.8-16.34-22.965-1.42-9.314-1.57-18.582 3.586-26.715l1.32-2.11c10.365-15.066 30.882-21.493 47.68-12.89"/><path fill="#dd0f17" d="M340 1079h597v7H340z"/><path fill="#111112" d="M774 152c7.88 1.453 14.973 4.155 22.375 7.188l3.5 1.384c12.208 4.967 23.168 10.547 29.29 22.748 3.044 9.761 1.01 20.3-3.419 29.2-5.243 9.529-12.717 15.944-23.121 19.23L800 232l-1.965.227C781.583 233.267 763.8 223.08 749 217l1-5h8a2766 2766 0 0 0 8.516-20.574l1.851-4.518q1.428-3.482 2.85-6.965 1.397-3.416 2.799-6.83l.864-2.124c2.006-4.875 2.006-4.875 3.12-5.989.501-2.873.501-2.873 0-6-2.378-2.404-2.378-2.404-5-4z"/><path fill="#121213" d="M781 950h9c2.65 5.157 5.01 10.29 7.066 15.707l.834 2.165a2379 2379 0 0 1 1.756 4.574c1.548 4.041 3.11 8.077 4.672 12.113l.947 2.446c3.613 9.317 7.381 18.569 11.19 27.808a744 744 0 0 1 5.039 12.562l1.214 3.069a537 537 0 0 1 2.203 5.67c2.187 5.494 4.422 10.21 10.099 12.812l1.793.387L840 1050v4h-44v-5l1.934-.402 2.504-.535 2.496-.528c2.043-.343 2.043-.343 3.066-1.535.583-6.174-1.119-10.672-3.5-16.312q-.988-2.4-1.969-4.801l-.888-2.119C799 1021 799 1021 799 1019h-37l-2 9c-1.562 4-1.562 4-2.336 5.938-1.16 3.6-1.412 7.303-1.664 11.062 3.955 2.757 7.224 3.532 12 4v5h-37v-5l2.23-.559c6.92-2.023 6.92-2.023 11.582-7.191A94 94 0 0 0 747 1036c.478-1.217.956-2.434 1.45-3.687a522 522 0 0 0 3.822-10.316 514 514 0 0 1 3.353-8.872l1.102-2.867c1.731-4.43 3.503-8.843 5.273-13.258l4.422-11.055.787-1.967 2.37-5.923.778-1.948 1.524-3.808q1.664-4.158 3.323-8.318c.35-.878.7-1.756 1.062-2.66l.899-2.258c1.231-3.042 2.527-6.054 3.835-9.063m-338.672-1.124 2.313.01h2.424c2.657 0 5.313.009 7.97.016l5.511.005q7.268.006 14.535.024 7.41.014 14.82.02 14.55.016 29.099.049.249 2.875.494 5.749l.278 3.234c.26 3.445.328 6.813.29 10.267l-.027 3.328L520 974h-5l-.7-1.574c-2.18-4.664-4.415-7.94-8.3-11.426l-1.312-1.687c-5.796-4.508-14.714-3.583-21.625-3.5l-3.19.001c-4.782-.422-4.782-.422-8.873 1.186-.16 2.883-.26 5.744-.316 8.629l-.063 2.619q-.098 4.157-.183 8.315l-.131 5.623q-.161 6.907-.307 13.814c3.065-.06 6.124-.147 9.188-.25l2.619-.043c4.13-.158 6.61-.351 10.197-2.539 3.694-4.012 5.19-8.85 5.996-14.168h6v41h-6l-.621-2.3-.816-3.012-.81-2.989A121 121 0 0 0 494 1006c-4.97-2.305-9.996-2.42-15.375-2.625l-2.52-.117c-2.034-.094-4.07-.177-6.105-.258q.067 8.463.208 16.925.042 2.88.063 5.759c.021 2.758.068 5.515.12 8.273l.003 2.604c.04 4.611.04 4.611 2.27 8.477 4.918 2.026 10.286 1.43 15.524 1.4l3.619.06c8.057-.004 15.263-.583 21.209-6.506l1.234-2.117 1.398-2.348c2.21-4.133 4.352-8.287 6.352-12.527h5q-.216 4.125-.437 8.25l-.12 2.297c-.352 6.504-.901 12.953-1.443 19.453h-89l1-5 3.75-.312c3.524-.443 5.714-1.05 8.25-3.688 1.233-3.699 1.132-7.11 1.114-10.96v-2.454c0-2.679-.009-5.357-.016-8.035l-.005-5.57q-.006-7.332-.024-14.663-.014-7.48-.02-14.96-.016-14.679-.049-29.358c-4.352-1.517-8.417-2.45-13-3a88 88 0 0 1-1-5c1.743-1.743 4.006-1.12 6.328-1.124"/><path fill="#111112" d="M401.688 951.188 405 953l2-6h6v34h-5l-.664-2.344c-3.02-9.92-7.056-17.485-16.336-22.656-5.82-2.792-11.67-2.645-18-2-4.48 2.085-7.19 4.372-9 9-.965 6.205-.193 10.802 3.125 16.113 7 7.045 17.1 10.005 26.145 13.518 11.073 4.49 19.938 10.07 24.73 21.369 2.5 7.5 1.585 15.581-1.684 22.688-4.698 8.253-11.589 13.768-20.464 17.124-11.596 3.104-22.813 1.29-33.852-2.812l-2.59-.934A267 267 0 0 1 354 1048l-2 5h-6c-.684-11.35-1.153-22.628-1-34h6l.777 2.492c3.323 9.687 8.059 17.665 17.036 23.07 6.986 3.151 15.252 3.864 22.675 1.72 4.907-2.292 8.067-5.392 10.512-10.282.771-6.804.217-12.477-4-18-5.957-4.937-12.772-7.785-19.937-10.5-19.45-7.4-19.45-7.4-25.625-15.625l-1.942-2.508c-3.969-6.28-3.315-15.166-2.496-22.367 1.98-6.96 5.938-12.093 12-16 3.563-1.75 3.563-1.75 7-3l2.828-1.059c10.694-3.173 22.085-.572 31.86 4.246"/><path fill="#121112" d="M707.441 952.71 710 954c1.66.68 3.326 1.352 5 2l2-5h6v35h-5l-.48-1.652c-2.962-9.57-7.146-19.038-16.145-24.098-6.467-3.395-11.055-3.41-18.375-3.25l-3.625-.062c-7.659 2.41-13.033 8.743-16.812 15.625-7.133 15.862-7.819 35.033-1.863 51.356 3.2 7.835 7.062 14.433 14.3 19.081l1.98 1.3c6.847 3.739 14.437 3.737 22.02 2.7 11.116-3.78 16.894-10.37 23-20l6 1c.593 5.858-2.299 8.87-5.727 13.344-7.583 8.86-18.764 13.61-30.298 14.879-16.479.925-30.159-3.227-42.725-14.285-10.963-11.728-13.974-27.904-13.531-43.344.749-15.282 7.302-28.084 18.281-38.594 14.115-12.767 36.328-15.23 53.441-7.29"/><path fill="#151516" d="M847 951h49v5c-1.862 1.862-5.143 1.304-7.676 1.426-3.233.798-4.296 1.93-6.324 4.574a50 50 0 0 0-.502 7.934l-.016 2.41c-.013 2.627.004 5.252.022 7.879q0 2.737-.005 5.476 0 5.736.034 11.472c.029 4.905.026 9.81.013 14.715-.007 3.77.001 7.538.014 11.306q.006 2.714 0 5.427c-.002 2.526.014 5.05.036 7.577l-.014 2.271c.052 3.995.052 3.995 1.792 7.497 2.334 1.487 4.135 1.425 6.888 1.434l3.142.012 3.284-.035 3.224.035c6.743-.025 13.377-.21 18.744-4.838 5.044-5.19 8.098-12.185 11.344-18.572h5c-.627 10.403-1.78 20.627-3 31h-84v-6l2.117-.402 2.758-.535 2.742-.528C858 1047.1 858 1047.1 860 1046c1.206-3.619 1.163-6.944 1.177-10.713l.02-2.376c.02-2.594.031-5.188.041-7.782l.013-2.685q.03-7.029.044-14.058c.011-4.843.046-9.686.085-14.53.026-3.722.035-7.444.038-11.167q.008-2.678.035-5.357c.025-2.497.024-4.993.017-7.49l.039-2.237c-.035-3.457-.26-5.28-2.393-8.06-2.428-1.773-3.827-2.09-6.803-2.232-4.244-.244-4.244-.244-5.313-1.313z"/><path fill="#0f0f10" d="M538 949h48v6l-1.828.113c-6.215.4-6.215.4-11.172 3.887-1.179 3.537-1.155 6.741-1.161 10.421l-.015 2.283q-.021 3.738-.027 7.476l-.017 5.197q-.015 5.45-.02 10.9a2827 2827 0 0 1-.058 13.958 2261 2261 0 0 0-.026 10.737q-.004 2.572-.024 5.146c-.017 2.4-.015 4.8-.008 7.202l-.028 2.141c.04 4.748.971 8.126 4.384 11.539 3.679.31 7.372.279 11.063.313l3.107.087c7.343.061 12.912-.938 18.52-5.893 5.062-5.094 7.55-12 10.31-18.507h5c.056 2.166.094 4.333.125 6.5l.07 3.656c-.281 6.98-1.328 13.912-2.195 20.844h-84v-5l2.047-.332 2.703-.48 2.672-.458c3.001-.85 4.403-1.475 6.578-3.73.408-2.728.557-5.058.533-7.789l.027-2.4c.022-2.622.015-5.243.006-7.866q.008-2.733.02-5.466.014-5.732-.01-11.465c-.017-4.895.007-9.79.042-14.684.022-3.765.02-7.529.012-11.294q0-2.706.02-5.413c.018-2.526.004-5.05-.019-7.576l.036-2.254c-.073-3.959-.542-5.638-3.069-8.754-2.573-2.02-3.658-2.667-6.848-2.789C539 955 539 955 538 954z"/><path fill="#131314" d="M1082 443h5l.503 1.633q1.15 3.717 2.31 7.43l.79 2.568c1.184 3.785 2.39 7.496 3.99 11.127 3.335 7.687 5.921 16.837 4.407 25.242-2.181 5.188-5.297 8.887-10 12-5.808.989-11.256.857-16.562-1.75L1070 499l-2.375-2.125C1066 495 1066 495 1066 493h-2l-.176 1.61c-1.206 3.499-3.594 5.915-6.012 8.64a1882 1882 0 0 0-3.007 3.488l-1.466 1.698c-4.198 4.904-7.745 9.187-9.339 15.564h-3c-.87-2.224-1.72-4.453-2.562-6.687l-.749-1.897c-1.432-3.852-2.19-6.522-.689-10.416 1.602-1.957 1.602-1.957 3.625-3.812a131 131 0 0 0 9.762-10.317 66 66 0 0 1 3.195-3.46c1.637-1.619 1.637-1.619 3.418-4.411-.05-3.787-.05-3.787-1-7-7.252 1.82-14.124 4.062-21 7v9h-5a4256 4256 0 0 1-4.5-12.312l-1.3-3.538-1.231-3.388-1.143-3.127C1021 467 1021 467 1021 464c2.313-.312 2.313-.312 5 0 1.813 2.5 1.813 2.5 3 5 4.881-.667 9.418-1.988 14.074-3.547l2.317-.767q2.42-.804 4.838-1.614a1558 1558 0 0 1 7.3-2.416c8.385-2.783 16.538-5.722 24.471-9.656z"/><path fill="#f7f7f7" d="M1103.2 537.652c3.718 2.783 6.72 6.19 8.8 10.348.708 6.328 1.232 12.246-2.687 17.563-5.84 6.775-13.63 11.606-22.595 12.72-2.495.178-4.968.255-7.468.28l-2.399.043c-6.631-.113-11.865-1.978-16.874-6.387l-1.352-1.719-1.398-1.719c-3.013-4.374-3.683-7.405-3.227-12.781 2.763-8.597 7.754-13.746 15.559-17.957 9.838-4.203 23.89-5.672 33.64-.39"/><path fill="#111112" d="m437 165 3 2c-1 3-1 3-4 5 .55 4.553 1.738 7.88 3.922 11.902l1.841 3.416 1.987 3.62 2.02 3.732a885 885 0 0 0 10.117 18.146l1.815 3.17a740 740 0 0 0 3.436 5.904l1.546 2.673 1.36 2.316C465 229 465 229 465 233c-4.518 1.397-6.738.56-10.892-1.549-1.16-.58-2.321-1.16-3.518-1.76l-3.766-1.937q-1.938-.98-3.88-1.955a1910 1910 0 0 1-10.174-5.174c-3.46-1.766-6.929-3.516-10.397-5.268A5378 5378 0 0 1 402 205c1.62 4.861 4.245 9.229 6.672 13.73q1.399 2.601 2.785 5.208A275 275 0 0 0 424 245l8-1 1 4c-5.79 3.8-11.762 6.996-18 10l-2-4 3-2c1.286-6.972-2.245-11.744-5.75-17.562a2849 2849 0 0 1-3.586-6.106l-1.85-3.15c-1.791-3.142-3.463-6.322-5.103-9.545l-1.575-3.059q-1.486-2.903-2.912-5.834c-1.272-2.449-2.456-4.626-4.224-6.744-3.56-1.281-3.56-1.281-7-1h-3l-1-4a618 618 0 0 1 7.188-4.062l2.04-1.182 2.002-1.104 1.825-1.031c4.804-1.534 9.177 1.313 13.398 3.441l1.86.933c1.982.995 3.96 2 5.937 3.005l4.069 2.051c9.626 4.86 19.197 9.818 28.681 14.949-.692-3.836-2.437-6.818-4.344-10.191l-.997-1.778q-1.574-2.8-3.159-5.594a2720 2720 0 0 1-3.159-5.604c-.952-1.694-1.91-3.386-2.866-5.077C431 181 431 181 430 178c-5.083-.113-5.083-.113-10 1l-1-5z"/><path fill="#131314" d="M969.375 270.5c2.239 2.067 2.337 3.491 2.625 6.5-.855 2.543-.855 2.543-2.187 5.188-3.393 7-6.218 14.107-8.813 21.437-1.427 3.985-3.102 7.666-5.062 11.41-1.36 2.85-2.274 5.803-3.215 8.813C952 326 952 326 950.375 329.5c-1.411 3.592-1.88 6.575-2.164 10.387-.212 2.118-.646 4.063-1.211 6.113-5.488-.888-8.54-5.026-12.312-8.812l-2.284-2.198-2.142-2.135-1.97-1.948C927 329 927 329 927.296 326.759L928 325h3v2h5l5-12a338 338 0 0 0-6-7l-1.969-2.281c-3.788-4.409-3.788-4.409-9.093-5.969-3.529 1.501-6.678 3.229-9.938 5.25l.5 2.25c.5 2.75.5 2.75.5 6.75-4 0-4 0-6.727-2.371a212 212 0 0 1-2.898-3.067c-3.325-3.74-3.325-3.74-7.375-6.562l1-4 1.704.222c8.472.6 14.68-2.74 22.046-6.534q1.916-.96 3.834-1.914c3.208-1.6 6.404-3.221 9.597-4.85 3.777-1.92 7.571-3.805 11.363-5.696q2.749-1.374 5.49-2.762c13.135-6.641 13.135-6.641 16.341-5.966M482.063 146.672c2.012 1.38 3.375 2.707 4.937 4.578l1.82 2.148L491 156c1.953 2.296 3.914 4.586 5.875 6.875l1.57 1.835c3.783 4.417 7.64 8.76 11.547 13.067a423 423 0 0 1 5.445 6.16l1.684 1.907a272 272 0 0 1 4.29 5.062l2.589 3.031 2.375 2.84c3.214 2.722 5.481 2.984 9.625 3.223l1 4a3815 3815 0 0 1-11.812 4.5l-3.393 1.3-3.252 1.231-3 1.143C513 213 513 213 510 213l-1-4 4-2c.392-3.399.154-4.764-1.75-7.676l-2.25-2.637-2.25-2.675L505 192c-7.51 1.917-14.758 4.24-22 7a1890 1890 0 0 0-.062 7.938l-.026 2.287c-.009 1.925.036 3.85.088 5.775.983 1.206.983 1.206 2.848 1.098L492 216c-.008 2.293-.008 2.293-1 5-2.69 1.387-5.035 2.377-7.875 3.313l-2.223.798c-3.07 1.077-5.629 1.889-8.902 1.889l-1-4 1.966-1.066c2.336-1.833 2.336-1.833 2.553-5.028l.027-3.856.031-2.13c.03-2.32.031-4.641.032-6.963q.023-2.415.05-4.83c.044-4.236.064-8.473.08-12.71.019-4.323.06-8.646.1-12.97.076-8.482.126-16.964.161-25.447 3.742-2.084 3.742-2.084 6.063-1.328"/><path fill="#121213" d="M165 444h4l.188 3.313c.43 3.72.43 3.72 2.875 5.437 3.603 1.533 7.268 2.882 10.937 4.25l5.469 2.05 2.958 1.11 6.266 2.35q7.127 2.674 14.256 5.342l2.2.823 5.706 2.134A388 388 0 0 1 228 474c-.43 2.794-.43 2.794-2 6-2.86 1.654-5.935 2.426-9.11 3.29l-2.782.819c-2.947.862-5.902 1.69-8.858 2.516q-2.918.844-5.832 1.695a1662 1662 0 0 1-13.919 3.972 756 756 0 0 0-6.907 1.996l-3.795 1.11-3.224.951C169 497 169 497 166 497v2l1.652.297c3.981.79 7.614 1.705 11.286 3.453 5.492 2.604 11.255 4.374 17.03 6.231 5.936 1.923 5.936 1.923 7.032 3.019 2.415.5 2.415.5 5 0 1.862-2.409 1.862-2.409 3-5l4 1c-1.926 6.856-4.247 13.433-7 20h-4v-7c-9.423-4.893-19.076-8.767-29.176-12.027-3.391-1.168-6.608-2.599-9.867-4.09-4.807-2.169-8.672-3.135-13.957-2.883l-2 5h-4c.235-1.482.49-2.96.75-4.437l.422-2.497L147 497l.57-2.222c1.248-3.739 2.256-6.122 5.78-8.09 2.986-1.022 5.95-1.794 9.025-2.5l3.283-.851a492 492 0 0 1 6.45-1.623c3.538-.873 7.021-1.872 10.517-2.901q3.188-.908 6.375-1.813l7.875-2.25L203 473c-6.41-4.273-14.165-6.475-21.39-9.047a122 122 0 0 1-4.907-1.906c-2.973-1.23-5.338-2.055-8.578-1.985-2.29.776-2.29.776-3.437 3L164 465l-4-1c.67-4.589 1.761-8.925 3.063-13.375l1.097-3.773z"/><path fill="#141415" d="M202 532h4c.275 6.196-.774 11.876-2 17.938l-.578 2.939Q202.72 556.441 202 560h-5v-8l-2.957.438-3.856.562-3.832.563C183 554 183 554 180 554l.125 3.313c.016 4.52-.779 8.755-1.687 13.171-.552 2.747-.552 2.747-.438 6.516 3.914 3.685 8.67 5.6 14 6l1-6h5l-.402 3c-.892 6.663-1.78 13.327-2.598 20l-5-1-.273-3.031c-1.78-6.125-8.18-8.512-13.352-11.469q-1.752-1.034-3.499-2.073-3.616-2.15-7.246-4.277c-5.696-3.355-11.284-6.882-16.88-10.4l-3.006-1.877c-4.628-2.892-9.227-5.81-13.744-8.873.188-2.875.188-2.875 1-6 3.65-1.885 7.479-2.615 11.488-3.402l3.807-.755 4.018-.78 4.11-.81a2184 2184 0 0 1 20.515-3.94l3.57-.676a341 341 0 0 1 7.672-1.305l4.132-.707 3.676-.586c3.73-1.286 4.156-2.698 6.012-6.039"/><path fill="#0f0f10" d="M344 218c4.887 1.217 9.011 4.515 13.125 7.313l2.385 1.605c4.891 3.3 9.762 6.63 14.63 9.965q2.36 1.617 4.725 3.228a705 705 0 0 1 12.088 8.412l4.797 3.352 2.201 1.607c3.475 2.4 5.76 3.936 10.065 3.338L411 256l1 4a596 596 0 0 1-14.937 11.438l-2.778 2.058C392 275 392 275 390 275l-1-5 2-1c-.3-3.321-.703-4.706-3.11-7.09l-2.64-1.848-2.61-1.902c-2.545-1.426-2.545-1.426-5.042-.64-3.266 1.861-6.353 3.924-9.41 6.105l-1.811 1.273Q364.185 266.444 362 268q.425 3.189.875 6.375l.492 3.586c.363 3.135.363 3.135 2.633 5.039 2.688.27 5.291.087 8 0l1 4a824 824 0 0 1-7.312 5.563l-2.092 1.615-2.022 1.513-1.856 1.413L360 298l-3-1 .5-1.5c1.257-6.287.403-11.86-1.258-17.98l-.556-2.082c-.594-2.211-1.202-4.418-1.811-6.625l-1.239-4.588c-2.496-9.229-5.051-18.443-7.783-27.605-1.616-5.485-2.81-10.998-3.853-16.62z"/><path fill="#f6f6f6" d="M792 165c7.672.47 14.468 3.621 20 9 3.513 5.214 4.693 8.935 4.563 15.188l-.032 2.25C816.13 202.004 811.615 211.626 804 219c-2.882 1.973-5.826 3.552-9 5l-2 1c-8.016.729-15.305-1.537-22-6 .469-6.995 3.266-12.827 6.063-19.187q1.5-3.472 2.996-6.946l1.503-3.485c2.462-5.791 4.771-11.642 7.063-17.502 2.276-5.78 2.276-5.78 3.375-6.88"/><path fill="#111112" d="M1048 371c3.735 1.245 4.22 2.84 5.956 6.219l1.107 2.219q1.192 2.326 2.39 4.648l1.256 2.444c2.509 4.8 5.182 9.51 7.84 14.228A652 652 0 0 1 1070 407l1.216 2.199 1.14 2.14 1.031 1.915C1074 415 1074 415 1073 418c-2.582 1.86-2.582 1.86-5.812 3.75l-3.208 1.922c-2.98 1.328-2.98 1.328-5.367 1.031L1057 424c2-4 2-4 3.04-5.79 1.969-4.531 1.666-9.397.96-14.21-1.625-3.637-3.627-6.808-6-10-4.869.596-8.593 2.725-12.812 5.063l-2.1 1.142q-2.548 1.39-5.088 2.795c.82 4.586 1.705 7.544 5 11 3.388.516 6.6.35 10 0l1 4a866 866 0 0 1-9.75 5.625c-.92.541-1.84 1.083-2.79 1.64l-2.694 1.524-2.476 1.428c-2.29.783-2.29.783-4.588-.079L1027 427v-2l2.5-1.75c2.765-2.023 2.765-2.023 3-5.125-.562-3.514-1.804-6.016-3.5-9.125v-2a2314 2314 0 0 0-7.625 3.75l-2.16 1.055c-4.305 2.132-8.28 4.439-12.215 7.195 1.063 6.972 4.657 13.175 9.125 18.563 4.681 2.34 9.718 2.812 14.875 3.437-.102 1.828-.102 1.828-1 4-2.836 1.484-2.836 1.484-6.375 2.75l-3.523 1.297C1017 450 1017 450 1014 450l-1.126-2.209a4135 4135 0 0 0-5.249-10.228l-.955-1.859c-4.33-8.414-8.8-16.702-13.912-24.676-2.81-4.52-2.81-4.52-2.512-7.47L991 402h3c1.688 2 1.688 2 3 4 4.88-.55 8.389-2.015 12.691-4.352l1.9-1.021c1.994-1.076 3.983-2.164 5.971-3.252l3.924-2.121a907 907 0 0 0 5.818-3.163c3.147-1.727 6.305-3.409 9.524-5l1.826-.923a487 487 0 0 1 4.947-2.443c2.606-1.524 2.606-1.524 3.284-4.294.234-2.414.234-2.414-.447-4.618L1046 373zM855 188c4.091 1.505 7.72 3.47 11.48 5.668l1.858 1.085q1.942 1.135 3.88 2.277a1476 1476 0 0 0 5.839 3.41c7.213 4.219 14.195 8.615 20.943 13.56a226 226 0 0 1-4.625 10.813l-1.352 2.957L892 230l-3-1-.043-2.414c-.123-6.94-.123-6.94-3.02-13.024-4.715-4.113-9.51-7.96-15.937-8.562l-.68 1.98c-1.765 4.037-4.079 7.624-6.445 11.333l-1.418 2.244Q859.733 223.28 858 226l2.375.93C863 228 863 228 865 229.125c3.57 1.562 6.379 1.082 10-.125l1-3 5 1c-1.267 3.364-2.711 6.37-4.602 9.426l-1.484 2.412-1.539 2.475-1.562 2.533A2170 2170 0 0 1 868 250l-4-2 .36-1.793c.877-5.222.877-5.222-.923-10.082-2.646-2.307-5.285-3.612-8.437-5.125a825 825 0 0 0-5.5 8.625c-.525.808-1.05 1.616-1.59 2.45-2.171 3.468-3.775 6.227-4.558 10.273.89 3.64 2.388 4.497 5.523 6.464l2.742 1.77c4.191 2.494 7.538 2.936 12.383 2.418a110 110 0 0 0 7-3c2.938-.687 2.938-.687 5-1 0 4.951-1.104 5.64-4.437 9.125-3.153 3.176-3.153 3.176-5.563 6.875-2.946-.612-5.147-1.528-7.695-3.117l-2.144-1.324-2.286-1.434-4.836-2.996-2.51-1.562c-4.819-2.986-9.669-5.92-14.514-8.861A297 297 0 0 1 820 248l2-4 8 1c4.895-6.774 9.314-13.707 13.5-20.937 12.058-20.62 12.058-20.62 14.5-23.063.417-2.916.417-2.916 0-6-1.88-1.913-1.88-1.913-4-3z"/><path fill="#121213" d="M1015.219 322.32c7.078 4.983 13.195 11.312 15.781 19.68.188 3.938.188 3.938 0 7h5l2 4-16 12-3-2c2-5 2-5 3.125-7.187 2.211-7.109 1.19-13.315-2.125-19.813l-1-3c-2.343-1.12-2.343-1.12-5-2l-1.848-1.035c-5.534-2.481-12.472-1.513-18.09.348-8.95 4.039-17.507 12.404-22.128 21.015-2.068 5.917-2.253 12.21-.008 18.102 3.066 5.293 7.194 9.23 12.761 11.82 4.732 1.071 9.479 1.423 14.313 1.75.043 1.666.04 3.334 0 5-1.809 1.809-4.364 1.342-6.812 1.438-8.597-.095-14.99-2.903-21.54-8.418-7.242-7.447-11.672-17.743-11.96-28.145.157-9.905 4.056-16.487 10.816-23.547 13.525-12.615 28.986-16.963 45.715-7.008"/><path fill="#111112" d="M198 380c4.468 1.399 8.638 3.136 12.875 5.125l3.492 1.633L217 388l-2 4-3.105-.246c-7.358-.685-7.358-.685-14.004 1.734-1.686 2.395-2.891 4.53-2.891 7.512l1.655.895q3.955 2.144 7.907 4.293l2.965 1.606a617 617 0 0 1 15.844 8.897l3.11 1.802a623 623 0 0 1 5.927 3.492c6.35 3.857 6.35 3.857 13.592 4.015 1.913-1.88 1.913-1.88 3-4l4 2-13 26-4-1 .352-1.758c.308-2.67.275-4.621-.352-7.242-1.763-1.639-1.763-1.639-4.168-2.836l-2.757-1.53L226 434l-3.27-1.786a1259 1259 0 0 0-10.667-5.714q-3.608-1.92-7.215-3.844l-3.476-1.851A1588 1588 0 0 1 187 413c-1.691 4.143-3 7.462-3 12 1.907 3.813 4.092 8.046 8 10l-2 4c-4.043-1.485-7.611-3.429-11.312-5.625l-3.239-1.914L173 430c.589-3.642 1.58-6.489 3.3-9.746l1.447-2.758 1.565-2.933 1.601-3.034c5.593-10.565 11.32-21.058 17.087-31.529"/><path fill="#111012" d="m246 313 4 2-1 1.688c-1.203 2.78-1.4 4.302-1 7.312 1.92 2.422 1.92 2.422 4.625 4.625l1.48 1.289c5.01 4.306 10.227 8.361 15.45 12.402 4.115 3.189 8.128 6.492 12.14 9.809 4.18 3.566 4.18 3.566 9.18 5.563 4.264-.939 5.421-3.054 7.828-6.547 2.815-4.646 3.948-7.565 3.297-13.141-1.236-2.168-2.58-4.128-4.102-6.105L297 330c.852-2.238.852-2.238 2-4 3.994 1.62 6.796 4.393 9.813 7.375l1.56 1.46c3.59 3.538 3.59 3.538 3.744 6.13-1.638 2.985-3.664 5.59-5.805 8.223l-1.449 1.816a856 856 0 0 1-8.601 10.52l-1.894 2.288a1044 1044 0 0 1-3.683 4.413c-2.88 3.456-5.52 6.808-7.685 10.775l-4-1c0-3 0-3 .281-6.43.065-3.59.065-3.59-2.125-5.765l-2.656-1.93-3.043-2.297-1.681-1.24c-2.581-1.945-5.068-3.998-7.564-6.05a910 910 0 0 0-6.126-4.98 838 838 0 0 1-8.047-6.585l-3.726-3.036-1.709-1.437c-2.47-1.988-4.173-3.194-7.354-3.605-2.422.382-4.148 1.11-6.25 2.355l-2-3 1.13-1.39 5.12-6.298c.587-.72 1.173-1.442 1.777-2.185 3.006-3.698 6.004-7.4 8.973-11.127"/><path fill="#0f0f10" d="m287 268 3 1c-.875 3.875-.875 3.875-2 5-.296 2.818-.382 4.427 1.212 6.82l1.722 1.698 1.943 1.952 2.13 2.061 2.177 2.162c2.302 2.281 4.622 4.544 6.941 6.807q2.31 2.285 4.617 4.574c9.186 10.716 9.186 10.716 20.695 17.176 4.982-2.43 8.527-6.695 11.563-11.25.731-6.134.591-10.848-3-16 .313-2.312.313-2.312 1-4h3c1.902 2.012 1.902 2.012 3.938 4.688l2.027 2.636L350 296q1.993 2.506 4 5c-1.643 4.191-4.723 7.012-7.855 10.121l-1.758 1.763a1316 1316 0 0 1-3.689 3.679 1255 1255 0 0 0-5.583 5.595l-3.595 3.588-1.662 1.674c-3.697 3.653-7.562 6.65-11.858 9.58-1.062-1.562-1.062-1.562-2-4l.926-3.104c.084-4.425-.309-4.909-3.098-8.087a236 236 0 0 0-4.578-4.586l-2.443-2.459a644 644 0 0 0-5.155-5.1 652 652 0 0 1-7.836-7.853 2405 2405 0 0 0-5.003-4.963l-2.353-2.386c-4.448-4.357-4.448-4.357-10.323-6.015-3.152.477-3.152.477-6.137 1.553l-2-1c1.457-3.363 3.311-5.545 5.914-8.11l2.305-2.285 2.406-2.355 2.43-2.402q2.966-2.93 5.945-5.848"/><path fill="#121213" d="M1094 468c2 1 2 1 2.852 3.371 4.218 16.725 4.218 16.725-.04 24.004-2.145 3.202-4.594 5.495-7.812 7.625-5.808.989-11.256.857-16.562-1.75L1070 499l-2.375-2.125C1066 495 1066 495 1066 493h-2l-.176 1.61c-1.206 3.499-3.594 5.915-6.012 8.64a1882 1882 0 0 0-3.007 3.488l-1.466 1.698c-4.198 4.904-7.745 9.187-9.339 15.564h-3c-.87-2.224-1.72-4.453-2.562-6.687-.37-.94-.37-.94-.749-1.897-1.432-3.852-2.19-6.522-.689-10.416 1.602-1.957 1.602-1.957 3.625-3.812 4.065-3.862 7.737-7.927 11.375-12.188l1.441-1.59c3.192-3.592 4.874-6.975 6.559-11.41l1 2h3l.77 1.68 1.043 2.195 1.019 2.18c1.163 2.25 1.163 2.25 4.168 3.945 5.215.647 11.024 1.15 15.625-1.75 3.792-3.593 4.629-6.846 5.438-11.937.834-5.21.834-5.21 1.937-6.313"/><path fill="#111112" d="m220 347 3 1-.562 1.8c-.56 3.213-.484 5.086.562 8.2 4.053 3.754 8.65 6.46 13.354 9.333 5.113 3.221 10.017 6.753 14.958 10.23q2.962 2.066 5.926 4.128l2.564 1.788c4.125 2.855 6.12 3.953 11.198 3.521l2-2c2.625.375 2.625.375 5 1-1.85 4.107-4.42 7.721-6.937 11.438-2.792 4.132-5.547 8.253-8.063 12.562l-4-2 1-8c-9.351-7.039-18.904-13.698-28.677-20.14l-2.573-1.696-2.458-1.618c-2.114-1.426-4.163-2.912-6.21-4.433-3.423-2.347-5.022-2.774-9.082-2.113l-2 2c-2.125-.375-2.125-.375-4-1 .632-3.411 1.938-5.673 3.906-8.512l1.754-2.545 1.84-2.63 1.84-2.667c4.47-6.456 4.47-6.456 5.66-7.646"/><path fill="#121213" d="M351 236c7.577 4.69 14.853 9.678 22 15-1 3-1 3-3 4v3l-2 3 2 1-8 6q.425 3.189.875 6.375l.492 3.586c.363 3.135.363 3.135 2.633 5.039 2.688.27 5.291.087 8 0l1 4a824 824 0 0 1-7.312 5.563l-2.092 1.615-2.022 1.513-1.856 1.413L360 298l-3-1 .5-1.5c1.301-6.506.334-12.278-1.434-18.543l-.598-2.217c-.626-2.312-1.265-4.62-1.906-6.928q-.95-3.48-1.895-6.96-.585-2.154-1.182-4.307c-2.864-10.409-2.864-10.409-1.048-15.858l.872-2.675z"/><path fill="#f1f1f2" d="M780 973c2.742 2.742 3.696 5.999 5.04 9.563l.865 2.263q.905 2.37 1.8 4.741a1673 1673 0 0 0 2.772 7.269l1.75 4.601.842 2.204C795 1008.769 795 1008.769 795 1011h-29c.806-4.834 1.916-8.844 3.688-13.332l.795-2.052q.828-2.13 1.664-4.258 1.282-3.268 2.548-6.544l1.617-4.146.77-1.982c1.802-4.57 1.802-4.57 2.918-5.686"/><path fill="#f3f3f3" d="M1088 465c2.488 5.702 4.086 10.744 3 17-2.148 3.606-4.145 5.454-8 7-5.201.615-10.191.83-15-1.375-3.057-4.013-6-9.46-6-14.625 17.74-8.422 17.74-8.422 26-8"/><path fill="#1a1a1a" d="M170 500c6.18 1.694 12.192 3.75 18.188 6l2.013.754a205 205 0 0 1 9.615 3.902c3.998 1.697 3.998 1.697 8.184 1.344 1.862-2.409 1.862-2.409 3-5l4 1c-1.926 6.856-4.247 13.433-7 20h-4v-7c-9.543-4.955-19.288-8.949-29.602-12.008C172 508 172 508 170 505c-.125-2.687-.125-2.687 0-5"/><path fill="#181818" d="m442.328 948.876 2.313.01h2.424c2.657 0 5.313.009 7.97.016l5.511.005q7.268.006 14.535.024 7.41.014 14.82.02 14.55.017 29.099.049v24h-1l-1-21-9.414.496c-12.656.609-25.293.618-37.961.567q-3.318-.008-6.637-.014-7.995-.017-15.988-.049v3l-10-1a88 88 0 0 1-1-5c1.743-1.743 4.006-1.12 6.328-1.124"/><path fill="#161617" d="M339 286h3c1.902 2.012 1.902 2.012 3.938 4.688l2.027 2.636L350 296q1.993 2.506 4 5c-1.652 4.29-4.89 7.143-8.102 10.297l-1.807 1.799c-1.9 1.89-3.808 3.772-5.716 5.654l-3.875 3.848q-4.743 4.708-9.5 9.402l-2-2a680 680 0 0 1 3.875-4l2.18-2.25C331 322 331 322 333 322l-.937-2.562C332 316 332 316 333.422 314.148a109 109 0 0 1 3.816-3.535c2.396-2.194 3.674-3.875 4.063-7.136.022-5.49-.083-8.86-3.301-13.477.313-2.312.313-2.312 1-4"/><path fill="#e9e9ea" d="M955 284a922 922 0 0 1-2.965 7.36c-2.231 5.484-4.236 11-6.035 16.64-4.075-.521-5.867-2.585-8.625-5.5-2.878-3.167-2.878-3.167-6.375-5.5 1-3 1-3 4.422-4.973q2.156-1.06 4.328-2.09c.717-.35 1.433-.702 2.172-1.064C951.944 284 951.944 284 955 284"/><path fill="#efefef" d="M482 166h2c1.27 1.427 2.465 2.92 3.625 4.438 3.45 4.443 7.08 8.628 10.906 12.75C500 185 500 185 500 187q-3.654 1.257-7.312 2.5l-2.092.723C487.61 191.233 485.173 192 482 192z"/><path fill="#f2f3f2" d="M351 236c7.577 4.69 14.853 9.678 22 15-1.35 4.052-3.396 4.875-6.937 7.188l-3.278 2.167C360 262 360 262 358 262q-1.472-5.093-2.937-10.187l-.842-2.909-.81-2.822-.747-2.587c-.661-2.484-1.187-4.969-1.664-7.495"/><path fill="#eaeaea" d="m174 555-2 18c-4.293-1.717-8.15-3.69-12.125-6l-1.879-1.078c-2.723-1.57-5.38-3.178-7.996-4.922v-2q5.155-1.005 10.313-2l2.958-.578 2.842-.547 2.619-.508C171 555 171 555 174 555"/><path fill="#131313" d="M165 444h4l.188 3.313c.416 3.806.416 3.806 3.25 5.5L175 454l2 2-1 3-1.863.043c-2.472.146-4.734.352-7.137.957-2.139 2.39-2.139 2.39-3 5l-4-1c.67-4.589 1.761-8.925 3.063-13.375l1.097-3.773z"/><path fill="#272727" d="M847 951h49v5l-1-4-1 3-37-1v3q-2.22.039-4.437.063l-2.497.035C848 957 848 957 847 956z"/><path fill="#2a2a2a" d="M538 949h48v2h-46v2h5v1h-7z"/><path fill="#141415" d="M540 951h38v1l-30 1 2 4-11-2z"/><path fill="#202020" d="M299 326c3.452 1.477 5.65 3.438 8.25 6.125l2.14 2.195L311 336l-2 3-2.75-2.437c-1.966-1.665-2.958-2.498-5.5-3.063L299 333c-1.25-2.562-1.25-2.562-2-5z"/><path fill="#242425" d="M928 325h3l.059 2.043c1.437 4.515 4.622 7.06 8.004 10.27l2.01 1.955A619 619 0 0 0 946 344l-2 2c-2.874-2.73-5.72-5.487-8.562-8.25l-2.483-2.355-2.334-2.286-2.174-2.094C927 329 927 329 927.274 326.743z"/><path fill="#1e1e1f" d="m302 345 1 2h5c-.38 2.755-.807 3.82-2.875 5.75C303 354 303 354 300 354l-4 1z"/><path fill="#383839" d="m379.688 945.938 3.574.027L386 946v1l-8 1-1 3 7 1v1l-12 1 1-6-3-1c3.422-1.14 6.087-1.098 9.688-1.062"/><path fill="#252526" d="m616.68 476.902 2.463.005c2.577.005 5.155.018 7.732.03q2.632.009 5.266.014 6.43.017 12.859.049v1l-3.09.076q-5.662.142-11.327.296-2.452.065-4.906.125-3.522.088-7.044.187l-2.223.05c-3.832.052-3.832.052-7.41 1.266q-3.511-.421-7-1v-1c4.953-.996 9.655-1.131 14.68-1.098"/><path fill="#2b2b2c" d="M351 239c2.288 2.288 2.755 3.808 3.688 6.875l.824 2.617c.505 2.595.344 4.039-.512 6.508v-3h-2l-.875-1.937c-.953-2.215-.953-2.215-3.125-3.063l-1 2c.507-3.719 1.116-6.735 3-10"/><path fill="#262626" d="M436 950c1.46.114 2.917.242 4.375.375l2.46.21C445 951 445 951 447 953v3l-10-1z"/><path fill="#0b0b0b" d="m349 247 4 2v3h2l1 7c-2.375-.625-2.375-.625-5-2-1.65-3.614-2-5.998-2-10"/><path fill="#c7161c" d="M662 47q4.25-.08 8.5-.125l2.398-.05c5.382-.045 9.932.67 15.102 2.175v1h-14v-2h-12z"/><path fill="#1a1a1b" d="m281 274 2 1-2.406 2.371-3.094 3.067-1.59 1.564A242 242 0 0 0 272 286v1h7v1q-2.185.543-4.375 1.063l-2.46.597C270 290 270 290 268 289c1.61-4.074 4.538-6.765 7.625-9.75l1.563-1.535A897 897 0 0 1 281 274"/><path fill="#454546" d="M990 383h9c.043 1.666.04 3.334 0 5-1 1-1 1-3.941 1.098l-3.621-.036-3.63-.027L985 389v-1l7-1v-2c1.207.03 1.207.03 2.438.063 2.496.233 2.496.233 3.562-1.063h-8z"/><path fill="#c9181e" d="M56 551h1q.08 3.78.125 7.563c.017.704.034 1.408.05 2.134.045 4.822-.647 8.726-2.175 13.303h-1q.213-4.063.438-8.125l.119-2.305c.238-4.255.645-8.374 1.443-12.57"/><path fill="#141415" d="m507 526 2 3-1.207 1.574c-2.342 3.083-4.59 6.078-6.543 9.426l-1.25 2h-2c1.484-6.264 5.242-10.915 9-16"/><path fill="#1d1d1e" d="M495 547c2 3 2 3 1.61 6.32l-.86 3.805-.828 3.82L494 564l-2 1c-.32-6.717.52-11.757 3-18"/><path fill="#1f1e20" d="M480 146c3.388 1.436 5.319 3.205 7.688 6l1.824 2.125C491 156 491 156 492 158l-2 2-1.242-1.715-1.633-2.222-1.617-2.215c-1.388-1.959-1.388-1.959-3.508-2.848v-3h-5z"/><path fill="#19191a" d="m246 313 4 2-4 7-1-3-4 3c.574-3.871 2.487-6.082 5-9"/><path fill="#222223" d="M848 953h9v4h-9z"/><path fill="#0b0a0b" d="M986 384h12l-1 3v-2h-5l1 3h-9l2-1z"/><path fill="#c7191b" d="m671 1214 14 1v1c-8.013 1.034-15.93 1.105-24 1v-1l10-1z"/><path fill="#de2e32" d="M859 1148c-3.12 2.64-6.01 4.066-10 5l-3-2c8.262-4.777 8.262-4.777 13-3"/><path fill="#2c2c2d" d="M333 320h2c-1.477 3.452-3.438 5.65-6.125 8.25l-2.195 2.14L325 332l-2-2a680 680 0 0 1 3.875-4l2.18-2.25C331 322 331 322 333 322z"/><path fill="#202020" d="m774 152 6 1v4l-2 2-5-4z"/><path fill="#212122" d="m437 165 3 2v2l-3.25.375c-3.59.403-3.59.403-5.937 1.75C429 172 429 172 425 171z"/><path fill="#282829" d="M755 1018h2c-2.346 7.373-2.346 7.373-4 10l-3 1q.676-2.19 1.375-4.375l.773-2.46C753 1020 753 1020 755 1018"/><path fill="#232324" d="m232 330 3 1v2h5v1c-3.62 1.316-6.096 2-10 2 0-3 0-3 2-6"/><path fill="#282828" d="m374 283 1 4c-2.375 1.563-2.375 1.563-5 3l-2-1v-2l2-1-4-2c2.763-.597 5.16-1 8-1"/><path fill="#1f1f20" d="m869 242 2 3-3 5-4-2 1-5h3z"/><path fill="#df3035" d="m851 115 1.563.813c3.101 1.51 6.26 2.843 9.437 4.187v2c-5.07-.654-9.42-2.855-14-5z"/><path fill="#df3337" d="M804 1169c-2.264 2.7-3.631 3.895-7.062 4.875C794 1174 794 1174 791 1172q2.682-1.044 5.375-2.062l3.023-1.16C802 1168 802 1168 804 1169"/><path fill="#373737" d="m212 387 5 1-2 4-13-1v-1l1.934-.148 2.504-.227c.823-.07 1.647-.14 2.496-.21L211 389z"/><path fill="#282828" d="M1022 355c1.125 3.75 1.125 3.75 0 6l5-2c-1.245 3.736-2.634 4.188-6 6-1.187-1.625-1.187-1.625-2-4 1.375-3.25 1.375-3.25 3-6"/><path fill="#1e1e1f" d="M425 172v2l3 2c-2.652 1.075-5.284 2.095-8 3l-1-5c3.75-2 3.75-2 6-2"/><path fill="#3b3b3d" d="M401 1199h2v2l3-1c3.625 1.25 3.625 1.25 7 3l1 3c-4.72-1.543-9.417-3.078-14-5z"/><path fill="#bc171b" d="M1181 458c2.11 3.166 2.756 5.512 3.625 9.188.26 1.086.52 2.173.79 3.292.192.832.386 1.663.585 2.52-4.593-4.437-4.593-4.437-5-8a195 195 0 0 1 0-7"/><path fill="#db272c" d="m1133 862 3 1-2 6h-2l-1 4h-2q.716-2.188 1.438-4.375l.808-2.46C1132 864 1132 864 1133 862"/><path fill="#cc171a" d="M1195 512h1q.506 2.625 1 5.25l.563 2.953C1198 523 1198 523 1198 527h-2a348 348 0 0 1-1.062-4.687l-.598-2.637c-.36-2.836-.05-4.924.66-7.676"/><path fill="#c4161b" d="m1175 444 3 1c.95 2.723.95 2.723 1.688 6.063l.761 3.347.551 2.59c-3.322-2.215-3.571-2.861-4.687-6.5l-.762-2.406C1175 446 1175 446 1175 444"/><path fill="#2a2b2b" d="M936 336c3.21 1.382 5.05 2.924 7.25 5.625l1.578 1.914L946 345c-3 0-3 0-4.824-1.46l-1.864-1.915-1.886-1.898C936 338 936 338 936 336"/><path fill="#202021" d="M875.313 259.25 877 260c-1.75 3.875-1.75 3.875-4 5v-2h-5c4.43-4.062 4.43-4.062 7.313-3.75"/><path fill="#181919" d="m822 244 8 3c-1.687 1.563-1.687 1.563-4 3-2.75-.312-2.75-.312-5-1 0-4 0-4 1-5"/><path fill="#0a0a0b" d="M1115 545c2 3 2 3 1.625 6.188L1116 554h-1l-1 6h-1c-.369-10.558-.369-10.558 2-15"/><path fill="#a3a3a3" d="M562 252h2c-.576 4.755-2.55 7.97-5 12h-2c1.31-4.234 2.944-8.074 5-12"/><path fill="#1f1f20" d="M387.313 192.313 389 193l-1.937.75c-2.25 1.066-2.25 1.066-2.813 3.375L384 199h-3l-1-4c4.43-3.077 4.43-3.077 7.313-2.687"/><path fill="#282929" d="m750 212 7 1-3 2v3l-5-1z"/><path fill="#6e6f70" d="M21 576h1c.224 2.04.428 4.082.625 6.125l.352 3.445c.024 3.595-.655 6.11-1.977 9.43h-1z"/><path fill="#c7171d" d="m706 51 15 1v1c-5.606.826-10.423 1.068-16 0z"/><path fill="#242425" d="M781 950h9l-1 3-9 1z"/><path fill="#dd1d22" d="M72 651h1l1 6h1v7l-3-1z"/><path fill="#343434" d="M193 577h5l-1 11h-1z"/><path fill="#1f070a" d="M719 521c2.992 1.364 5.29 2.95 7.75 5.125l1.86 1.633L730 529l-2 2a1766 1766 0 0 1-4.5-4.437l-2.531-2.497C719 522 719 522 719 521"/><path fill="#333335" d="M94 341c.75 1.563.75 1.563 1 4-1.13 2.503-2.521 4.67-4 7h-2c1.225-4.053 2.699-7.444 5-11"/><path fill="#313131" d="m908 309 6 3 1-2v4c-4 0-4 0-5.75-1.375C908 311 908 311 908 309"/><path fill="#1a1a1a" d="M409 256h2l1 4-4 3-2-1v-2h2z"/><path fill="#c41217" d="M763 1202c-2.962 1.671-5.37 2.327-8.75 2.625l-2.422.227L750 1205c4.625-3.668 7.202-4.16 13-3"/><path fill="#3a393b" d="M385 1192c1.484.423 2.962.864 4.438 1.313l2.496.738L394 1195l1 3q-2.19-.676-4.375-1.375l-2.46-.773C386 1195 386 1195 384 1193z"/><path fill="#db292e" d="M1117 895c.75 1.563.75 1.563 1 4-1.13 2.503-2.521 4.67-4 7h-2c1.225-4.053 2.699-7.444 5-11"/><path fill="#1c1c1d" d="M889 219h1l.375 2.313c.506 2.89.506 2.89 2.625 5.687l-1 3-3-1z"/><path fill="#2b2a2d" d="m221 178 2 1a517 517 0 0 1-3.375 3.5l-1.898 1.969C216 186 216 186 214 186c1.491-3.795 3.757-5.61 7-8"/><path fill="#252425" d="M795 163c3.442.353 5.069 1.046 8 3v2l-10-3z"/><path fill="#bf161b" d="M844 1176c-2.313 2.313-3.479 2.496-6.625 3.125l-2.477.508L833 1180v-2c3.83-1.802 6.781-2.196 11-2"/><path fill="#dd292d" d="M888 1131v2h-3v3c-1.875.625-1.875.625-4 1l-2-2c6.75-4 6.75-4 9-4"/><path fill="#191919" d="M579 951h7v4h-3v-2h-5z"/><path fill="#282828" d="m211 507 4 1-2 4h-4zm871-64h5l1 6c-2 0-2 0-3.562-1.312C1083 446 1083 446 1082 443"/><path fill="#2b2c2d" d="M952 277c2 1 2 1 3.125 4.063L956 284l-5 1 1-6-2-1z"/><path fill="#252527" d="m206 192 1 3-5 5-3-1z"/><path fill="#f0aeaf" d="M556 77c-10.374 3.629-10.374 3.629-16 2v-1q2.873-.544 5.75-1.062l3.234-.598c2.764-.312 4.425-.24 7.016.66"/><path fill="#c7171c" d="M882 1159a432 432 0 0 1-4.375 2.563l-2.46 1.44L873 1164l-2-1c3.156-3.654 6.266-5.578 11-4"/><path fill="#1e1e1f" d="M488 1002c3.674.306 4.781.758 7.313 3.563L497 1008h-3v-2l-6-2z"/><path fill="#1f1f20" d="m353 957 2 3-2 2c-.643 2.069-.643 2.069-1 4h-3c1.059-3.403 2.009-6.014 4-9"/><path fill="#19191a" d="M703 959c4.274 1.583 6.265 4.506 9 8-3 0-3 0-5.625-2.312C704 962 704 962 703 959"/><path fill="#1b1b1c" d="M717 951h6l-2 2c-.167 2.584-.167 2.584 0 5l-1-4-4 2z"/><path fill="#dd262b" d="M753 1185c-3.353 2.236-3.907 2.173-7.687 1.625l-2.45-.336L741 1186v-1c4.333-.928 7.667-.928 12 0"/><path fill="#e0383b" d="M813 1164c2 1 2 1 3 3-3.406.778-6.508 1.1-10 1 2.386-1.892 4.072-3.024 7-4"/><path fill="#de2e33" d="m845.75 1152.313 2.25.687c-1.687 1.563-1.687 1.563-4 3-2.75-.312-2.75-.312-5-1 2.455-2.273 3.338-3.075 6.75-2.687"/><path fill="#171617" d="m393 993 10 4c-4.408 1.102-5.892.587-10-1z"/><path fill="#242324" d="m263 404 2 3-2 3-4-2 1-3z"/><path fill="#db262b" d="M761 1182c-1 1.563-1 1.563-3 3-2.766-.033-5.26-.506-8-1v-1c3.734-.879 7.168-1.09 11-1"/><path fill="#d92226" d="m1031 1017 2 1-6 7-2-1z"/><path fill="#272627" d="M362 967h1l2 10-3-1c-.845-3.378-1.108-5.675 0-9"/><path fill="#252526" d="m546 952 4 4c-3.742 0-7.29-.513-11-1v-1z"/><path fill="#dd262d" d="m1107 913 2 4c-1.375 1.5-1.375 1.5-3 3h-2c1.875-4.75 1.875-4.75 3-7"/><path fill="#1c1b1d" d="M502 533c.688 1.688.688 1.688 1 4-1.312 2.75-1.312 2.75-3 5h-2c1.059-3.403 2.009-6.014 4-9"/><path fill="#3e3e3e" d="M616 477v1c-5.166 1.792-8.51 2.12-14 1v-1c4.763-.953 9.167-1.083 14-1"/><path fill="#393739" d="M1179 368h2a101 101 0 0 1 3 6l-1 2c-2.9-2.395-3.502-4.312-4-8"/><path fill="#2a2a2b" d="M983 336c-1.393 3.367-2.979 4.986-6 7 0-3 0-3 1.875-5.187C981 336 981 336 983 336"/><path fill="#252525" d="m855 188 4 2-2 4-3-2z"/><path fill="#de2327" d="m774 1178-1 3-6 1v-3c2.49-.687 4.379-1 7-1"/><path fill="#1a1a1b" d="M722 1027h2l1 3-5 4c.875-4.75.875-4.75 2-7"/><path fill="#262626" d="m408 976 2 2 3-1v4h-5z"/><path fill="#d2d2d2" d="M157 559h-3l1 4-5-2v-2c3.133-1.044 3.99-.934 7 0"/><path fill="#212121" d="M146 500c2.36 2.36 2.491 3.779 3 7h-4z"/><path fill="#c9c9ca" d="M171.188 496.938 173 498h-2v2l-5-1v-2c3-1 3-1 5.188-.062"/><path fill="#232324" d="M555 492v2c-4.43 2.092-4.43 2.092-7.312 1.625L546 495c5.625-3 5.625-3 9-3"/><path fill="#292829" d="m1048 371 3 1v2h-2l-1 3-2-4z"/><path fill="#313131" d="M268 287h11v1q-2.185.543-4.375 1.063l-2.46.597C270 290 270 290 268 289z"/><path fill="#232323" d="M970 273h2l-1 7-3 1z"/><path fill="#212121" d="M471 223h3v2l5-1-1 2c-3.062.625-3.062.625-6 1z"/><path fill="#2a2b2c" d="m768 188 2 3c-.875 2.688-.875 2.688-2 5l-2-1z"/></svg>